<svg xmlns="http://www.w3.org/2000/svg" xmlns:xlink="http://www.w3.org/1999/xlink" version="1.1" id="Laag_1" x="0px" y="0px" viewBox="0 0 265.45 282.88" style="enable-background:new 0 0 265.45 282.88;" xml:space="preserve">
<style type="text/css">
	.st0{fill:#4A4797;}
	.st1{fill:#181D29;}
	.st2{fill:#FFFFFF;}
	.st3{fill:#DED0E8;}
	.st4{fill:#1A1835;}
	.st5{fill:#4B4898;}
	.st6{fill:#DDD0E8;}
	.st7{fill:#1A1731;}
	.st8{fill:#FAF9FA;}
	.st9{fill:#FDCB54;}
	.st10{fill:#191731;}
	.st11{fill:#D9CCE5;}
	.st12{fill:#1A1E29;}
	.st13{fill:#FCCB53;}
	.st14{fill:#1A1733;}
	.st15{fill:#221E3B;}
	.st16{fill:#585080;}
	.st17{fill:#362E62;}
	.st18{fill:#1A1834;}
	.st19{fill:#1B1835;}
	.st20{fill:#1B1836;}
	.st21{fill:#302438;}
	.st22{fill:#191730;}
	.st23{fill:#43328A;}
	.st24{fill:#271E34;}
	.st25{fill:#33253E;}
	.st26{fill:#3E2A84;}
	.st27{fill:#2C2645;}
	.st28{fill:#322737;}
	.st29{fill:#5A4444;}
	.st30{fill:#C29C4A;}
	.st31{fill:#4A4370;}
	.st32{fill:#1C1937;}
	.st33{fill:#282250;}
	.st34{fill:#292352;}
	.st35{fill:#5B4F84;}
	.st36{fill:#50467B;}
	.st37{fill:#342C63;}
	.st38{fill:#3C3269;}
	.st39{fill:#191D29;}
	.st40{fill:#4A4596;}
	.st41{fill:#3D2A84;}
	.st42{fill:#43338A;}
	.st43{fill:#463C70;}
	.st44{fill:#362D64;}
	.st45{fill:#473C6F;}
	.st46{fill:#43386B;}
	.st47{fill:#4D4277;}
	.st48{fill:#292356;}
	.st49{fill:#3B3168;}
	.st50{fill:#3C336A;}
	.st51{fill:#4E4379;}
	.st52{fill:#392F66;}
	.st53{fill:#282353;}
	.st54{fill:#2A2353;}
	.st55{fill:#41398C;}
	.st56{fill:#372B86;}
	.st57{fill:#3A2E87;}
	.st58{fill:#181C29;}
	.st59{fill:#16182B;}
	.st60{fill:#15172C;}
	.st61{fill:#4B4797;}
	.st62{fill:#181B2A;}
	.st63{fill:#4C3742;}
	.st64{fill:#614945;}
	.st65{fill:#ECBD53;}
	.st66{fill:#7B6047;}
	.st67{fill:#1F193B;}
	.st68{fill:#4B4798;}
	.st69{fill:#484494;}
	.st70{fill:#25224F;}
	.st71{fill:#2C2762;}
	.st72{fill:#181730;}
	.st73{fill:#3D2782;}
	.st74{fill:#1B1937;}
	.st75{fill:#DDD0E7;}
	.st76{fill:#4C486C;}
	.st77{fill:#201D44;}
	.st78{fill:#2D2764;}
	.st79{fill:#1E1C3F;}
	.st80{fill:#262254;}
	.st81{fill:#272358;}
	.st82{fill:#272356;}
	.st83{fill:#28245A;}
	.st84{fill:#282358;}
	.st85{fill:#F9BD8F;}
	.st86{fill:#C2A167;}
	.st87{fill:#CDB384;}
	.st88{fill:#DAC5A2;}
	.st89{fill:#EF7C71;}
	.st90{fill:#161818;}
	.st91{fill:#EB5D6A;}
	.st92{fill:none;stroke:#1A1835;stroke-width:2;stroke-miterlimit:10;}
	.st93{fill:#DED0E8;stroke:#DFD0E8;stroke-width:2;stroke-miterlimit:10;}
</style>
<path class="st0" d="M184.82,146.73h-0.48c-2.06,0-3.99,0.87-5.69,2.17c-0.69,0.53-1.49,0.83-2.36,0.83s1.85-1.43,1.05-1.18  c-2.09,0.65-4.74,0.96-6.8,0.96l-1.47,0.59c-3.95,3.78-3.41,6.05-3.41,9.05l1.24,33.53c0,3-1.54,6.41,0.88,6.41h17.04  c2.42,0,4.39-2.45,4.39-5.45v-41.45C189.22,149.18,187.24,146.73,184.82,146.73z"/>
<path class="st1" d="M-437.28,257.27c0-87.84,0.01-175.67-0.06-263.51c0-2.24,0.51-2.75,2.75-2.75  c95.84,0.07,191.67,0.06,287.51,0.06c0.55,1.04,0.28,2.15,0.28,3.23c0.01,86.53,0.02,173.06,0.01,259.59c0,4.1,0.44,3.67-3.67,3.67  c-94.53,0.01-189.06,0.01-283.59-0.01C-435.12,257.56-436.24,257.83-437.28,257.27z"/>
<path class="st2" d="M-437.28,257.27c95.63,0,191.27-0.01,286.9,0.06c2.71,0,3.37-0.65,3.36-3.36  c-0.08-87.63-0.06-175.27-0.06-262.9c1.24,0.54,0.56,1.62,0.56,2.39c0.04,26.12,0.04,52.24,0.04,78.36  c0,61.22-0.01,122.43,0.06,183.65c0,2.05-0.4,2.45-2.45,2.45c-95.34-0.07-190.67-0.05-286.01-0.09  C-435.66,257.84-436.74,258.51-437.28,257.27z"/>
<path class="st3" d="M-212.79,126.18c-0.6,5.67-3.25,9.99-8.39,12.65c-1.26,0.28-2.17,1.43-3.54,1.43  c-13.84,0.1-27.67,0.01-41.51,0.05c-1.39,0-2.79-0.15-4.15,0.29c-1.36,0.42-2.73,0.41-4.12,0.16c-0.92-0.22-1.7-0.69-2.39-1.32  c-0.57-0.59-1.32-0.95-1.94-1.47c-0.62-0.46-1.35-0.75-1.97-1.22c-0.96-0.4-1.68-1.2-2.6-1.59c0.04,0.02-0.11-0.05-0.11-0.05  s0.08,0.08,0.11,0.1c0.94,0.33,1.52,1.17,2.43,1.47c0.7,0.49,1.43,0.94,2.11,1.46c0.87,0.45,1.66,1,2.34,1.72  c0.83,0.72,1.01,1.69,1.02,2.71c0.06,10.34,0.09,20.68-0.01,31.02c0,0.5-0.13,0.98-0.35,1.44c-1.38,1.58-3.04,0.72-4.63,0.54  c-1.95-0.68-4-0.96-5.97-1.55c-1.58-0.48-3.3-0.86-3.8-2.84c-0.29-15.24-0.05-30.47-0.12-45.71c-0.02-3.39-0.02-6.77,0.01-10.16  c0.01-1.18-0.15-2.41,0.62-3.46c1.16-1.04,2.6-0.79,3.96-0.79c8.7-0.02,17.39-0.03,26.08-0.01c2.29-0.06,4.45,0.69,6.65,1.16  c0.5,0.05,1.01,0.07,1.51,0.17c11.17,2.5,22.41,4.66,33.61,7.03c1.35,0.29,2.7,0.6,4.02,0.99  C-211.71,121.98-212.76,124.18-212.79,126.18z"/>
<path class="st4" d="M-245.2,40.24c3.1-1.06,5.07-4.13,8.74-4.37c5.16-0.34,8.83,2.12,12.23,5.45c2.43,5.65,0.47,10.78-1.7,15.97  c-5.34,12.77-10.5,25.62-15.49,38.53c-2.22,5.75-6.58,8.62-12.65,8.62c-0.98,0-2-0.26-2.91,0.3c-1.28,1.98,0.15,4.36-0.98,6.35  c-0.2,0.27-0.47,0.42-0.81,0.44c-0.31-0.13-0.54-0.35-0.7-0.64c-0.91-2.14,0.05-4.54-0.94-6.67c-0.58-1.09-1.64-0.9-2.61-1.03  c-12.52-1.72-25.13-2.84-37.62-4.83c-1.53-0.24-2.55-1.01-3-2.51c-0.17-3.24,0.64-6.4,0.95-9.6c0.09-0.95,0.41-1.93,1.37-2.47  c0.07-3.55,2.27-3.81,5.14-3.62c5.65,0.36,11.3,0.1,16.98,0.47c5.6,0.36,11.29-0.41,16.95-0.54c3.17-0.07,3.12-3.24,3.22-5.5  c0.2-4.67,0.04-9.36,0.07-14.04c0.01-1.06-0.3-2.22,0.6-3.12c0.98,0.81,0.87,1.96,0.88,3.03c0.04,3.48,0.06,6.96-0.02,10.58  c4.26-10.11,7.75-20.42,12.42-30.24C-245.01,40.64-245.1,40.42-245.2,40.24z"/>
<path class="st5" d="M-258.86,111.41c0.17,0,0.34-0.04,0.49-0.12c0.85-2.56-0.25-5.27,0.59-7.84c3.21-0.23,6.5,0.69,9.61-1.05  c2.75-1.54,4.65-3.75,5.79-6.58c5.48-13.63,10.83-27.31,16.34-40.94c1.63-4.04,3.15-7.98,1.13-12.32c-0.29-0.62-0.18-1.18,0.68-1.26  c4.85,3.27,8.36,7.58,10.29,13.14c0.33,0.95,0.56,1.89,0.48,2.89c0.6,4.04,0.11,8.11,0.27,12.16c0,13.04,0,26.08-0.01,39.12  c0,1.09,0.14,2.19-0.14,3.27c-1.01,1.13-2.38,0.88-3.64,0.87c-11.46-0.09-22.92,0.26-34.37-0.18c-0.62-0.02-1.18,0.11-1.7,0.45  c-1.9-0.4-3.8-0.81-5.7-1.21c-0.15-0.04-0.31-0.08-0.46-0.12C-259.1,111.61-258.98,111.51-258.86,111.41z"/>
<path class="st6" d="M-318.81,28.75c1.18,1.72,0.56,3.67,0.61,5.51c0.1,3.67,0.03,7.35,0.03,11.03c0,1.21-0.19,2.37-1.09,3.28  c-1.55,1.51-3.5,1.73-5.53,1.73c-5.77,0-11.56-0.21-17.32,0.07c-4.07,0.19-8.08,0.47-12.16-0.02c-4.64-0.56-5.77-1.49-5.81-6.08  c-0.03-4.28-0.06-8.56,0.01-12.84c0.06-3.66,1.42-5.03,5.12-5.05c10.45-0.05,20.9-0.02,31.36-0.02  C-321.59,26.37-319.85,26.85-318.81,28.75z"/>
<path class="st4" d="M-368.37,192.66c-1.29-0.7-2.69-0.59-4.08-0.59c-13.43,0-26.86,0-40.29,0c-0.19-0.35-0.13-0.66,0.18-0.91  c1.74-0.99,3.64-0.6,5.49-0.67c1.7-0.06,3.51,0.76,5.01-0.7c1.26-4.57,4.82-5.63,8.92-5.82c2.76-0.13,5.01-3.33,4.06-5.93  c-0.58-1.58-1.86-0.84-2.73-0.46c-4.31,1.9-8.72,1.16-13.13,0.7c-0.29-0.14-0.52-0.35-0.68-0.64c6.83,0.96,10.19-4.33,14.44-8.01  c1.21-1.05,2.59-1.78,4.17-2.09c8.09-3.29,16.14-4.15,24.13,0.35c1.64,0.92,3.01,2.24,4.72,3.04c3.24,1.85,4.95,4.94,6.6,8.1  c1.18,2.26,1.65,4.85,3.34,6.87c0.51,0.61,0.05,1.07-0.52,1.38c-4.72,0.6-9.47,0.12-14.19,0.29  C-366.87,187.01-367.26,190.22-368.37,192.66z"/>
<path class="st7" d="M-358.29,171.73c-0.75-0.01-1.26-0.46-1.81-0.89c-7.09-5.53-15.01-6.41-23.48-4.13  c-1.14,0.31-2.29,0.56-3.44,0.83c1.76-1.7,4.06-2.06,6.3-2.35c2.36-0.31,3.36-1.18,3.34-3.8c-0.12-17.24-0.09-34.48-0.03-51.73  c0.01-2.13-0.27-3.44-2.89-3.19c-3.09,0.3-2.43-2.11-2.54-3.92c-0.12-1.95,0.25-3.28,2.69-3.24c6.08,0.09,12.16-0.01,18.24,0.05  c1.91,0.02,2.61-0.35,1.57-2.34c-6.65-12.82-13.23-25.66-19.83-38.51c-0.32-0.61-0.65-1.25-0.8-1.91c-0.22-1,0.28-1.69,1.2-2.15  c0.96-0.48,1.53,0.02,1.99,0.72c0.71,1.08,1.42,2.17,2.01,3.31c5.8,11.35,11.64,22.69,17.32,34.1c1.51,3.03,3.22,4.86,7.03,4.46  c3.84-0.41,7.77-0.09,11.65-0.09c0.83-0.94,1.96-0.85,3.04-0.86c8.54-0.11,17.08-0.35,25.62-0.05c1.63,0.06,3.1,0.34,4.51,1.25  c2.71,1.76,5.86,1.32,9.02,1.66c-1.48-0.12-2.8-0.19-4.12-0.28c-1.27-0.09-1.97-0.83-1.94-2.16c0.08-0.37,0.29-0.63,0.64-0.77  c1.57,3.21,4.8,1.9,7.15,2.25c11.48,1.71,23.03,2.95,34.55,4.37c0.91,0.11,1.73,0.41,2.29,1.2c-1.03,0.91-2.23,0.64-3.41,0.51  c-5.44-0.59-10.84-1.41-16.26-2.11c-2.29-0.29-3.91-0.22-4.15,2.59c-0.09,1.02-0.8,2.11-1.76,2.23c-2.89,0.37-3.99,2.4-4.93,4.69  c-0.55,0.23-1.04,0.15-1.47-0.27c-0.67-3.16-2.79-3.67-5.71-3.66c-24.33,0.1-48.66,0.05-72.99,0.06c-4.85,0-4.87,0.02-4.88,4.75  c-0.02,5.98-0.01,11.96,0,17.94c0,9.77,0.07,19.54-0.04,29.31c-0.03,2.7,0.89,3.99,3.57,4.4c3.68,0.56,7.12,1.93,10.22,4.03  C-359.53,168.91-358.06,169.77-358.29,171.73z"/>
<path class="st4" d="M-274.86,140.03c1.23,0,2.46-0.01,3.7-0.01c0.8-0.43,1.42-0.32,1.79,0.58c-0.29,3.17,1.87,3.16,4.06,3.16  c14.72,0.01,29.44,0,44.16,0c3.58,0,7.16-0.06,10.74,0.02c2.46,0.06,4.74-0.37,6.78-1.81c0.69-0.32,1.38-0.51,2.11-0.16  c-0.17,1.5-1.27,2.26-2.4,2.99c-1.06,0.91-2.33,0.91-3.64,0.9c-8.52-0.02-17.03-0.03-25.55,0.01c-0.99,0-2.25-0.53-2.86,0.87  c-0.31,0.42-0.72,0.68-1.22,0.82c-3.36-1.84-7.06-0.91-10.81-1.25c1.87,1.3,2.98,3.29,5.14,4.02c0.39,0.24,0.68,0.56,0.71,1.04  c-5.7,6.16-11.35,12.37-17.31,18.29c-1.09,1.08-1.86,2.67-3.8,2.47c-4.03-2.73-6.84-6.78-10.56-9.84c-1.16-0.95-2.36-1.84-2.22-3.59  c0-5.55-0.03-11.09,0.03-16.63C-275.98,141.21-276.69,139.78-274.86,140.03z"/>
<path class="st8" d="M-202.75,142.37c-1.45,1.69-3.26,2.35-5.51,2.35c-19.69-0.05-39.38-0.03-59.07-0.04  c-1.16,0-2.43,0.24-3.18-1.08c-0.7-1.23-0.06-2.07,0.75-2.88c0.79-0.84,1.83-0.68,2.81-0.68c14.14-0.01,28.28-0.13,42.42,0.07  c4.37,0.06,8.75,0.18,13.12,0.21c0.97,0.01,2,0.27,2.92-0.3c1.86-0.95,2.24-2.6,2.23-4.5c-0.03-4.57,0.14-9.14-0.04-13.71  c-0.55-13.94,2.44-26.98,9.59-39.01c1.3-2.67,3.15-5,4.78-7.47c0.36-0.56,0.72-1.12,1.08-1.68c1.29-1.66,2.7-2.78,4.78-1.14  c1.22,1.96-0.07,3.46-1.05,4.89c-2.37,3.44-4.69,6.89-6.72,10.55c-3.86,6.95-6.02,14.43-7.07,22.26  c-1.25,9.31-0.37,18.67-0.59,28.01C-201.54,139.75-201.62,141.19-202.75,142.37z"/>
<path class="st9" d="M-302.99,95.75c-0.08,0.21-0.16,0.42-0.24,0.62c-0.91,0.83-1.97,0.75-3.08,0.6c-4.64-0.62-8.95-2.39-13.34-3.88  c-1-0.34-2.12-0.71-2.23-2.06c0.03-0.25,0.26-0.47,0.18-0.76c-0.13,0.09-0.28,0.19-0.45,0.32c-0.83,0.88-1.87,1.2-3.03,1.23  c-1.58,0-3.15,0.05-4.73-0.04c-0.84-0.06-1.59-0.34-2.22-0.92c-0.45-0.48-0.73-1.02-0.6-1.7c1.96-2.53,4.73-4.06,7.26-5.89  c0.85-0.23,1.61-0.68,2.39-1.07c2.17-1.08,4.34-1.6,6.55-0.11c0.96,0.68,2.02,1.17,3.01,1.7c0.25,0.26-0.27,0.29,0.07,0.08  c0.05-0.03,0.04-0.09-0.01-0.19c-0.05-0.08-0.1-0.12-0.19-0.15c-0.81-1.41,0.35-1.22,1.02-1.21c3.72,0.07,7.44-0.25,11.16,0.16  c0.05,0.44,0.1,0.87,0.14,1.31C-301.89,87.78-302.44,91.77-302.99,95.75z"/>
<path class="st10" d="M-210.5,190.26c5.68,0.01,11.37-0.02,17.05,0.04c1.21,0.01,3.33-0.59,3.36,0.88c0.03,1.75-2.06,0.84-3.15,0.84  c-50.46,0.05-100.92,0.04-151.38,0.04c-0.3-0.56-0.25-1.07,0.23-1.51c1.16-0.76,2.48-0.54,3.74-0.55  c5.82-0.03,11.64-0.01,17.46-0.01c1.18,0,2.39,0.1,3.33-0.83c0.83-0.99,0.55-2.21,0.7-3.33c0.15-1.11-0.03-2.4,1.43-2.86  c1.12,0.84,1.04,2.05,1.02,3.24c-0.01,0.31-0.01,0.63-0.02,0.95c0.1,1.01-0.06,2.1,0.82,2.89c0.44,0.26,0.89,0.52,1.39,0.51  c7.64-0.06,15.29,0.3,22.93-0.19c0.33-0.09,0.67-0.16,1.01-0.23c0.51-0.09,1.03-0.11,1.55-0.15c3.83-0.54,7.75,0.5,11.54-0.66  c1.05-0.9,0.85-2.12,0.89-3.29c0.11-3.34-0.26-6.68,0.21-10.01c0.22-0.46,0.34-0.97,0.64-1.39c1.73,0.42,1.51,1.91,1.57,3.12  c0.15,2.88,0.07,5.78,0.06,8.67c-0.01,2.01,0.85,2.91,2.87,2.85c2.48-0.07,4.99,0.19,7.43-0.48c0.82-0.19,1.59-0.04,2.35,0.27  c1.56,1.05,3.19,0.07,4.78,0.15c13.44-0.02,26.87-0.01,40.29-0.01c1.09,0,2.19-0.01,3.26,0.2  C-212.11,189.28-211.41,190.1-210.5,190.26z"/>
<path class="st0" d="M-344.53,190.87c-0.03,0.4-0.06,0.8-0.1,1.2c-1.25,2.61-3.41,3.57-6.19,3.47c-4.05-0.14-8.1-0.28-12.15-0.36  c-2.2-0.04-4.04-0.75-5.41-2.53c-0.35-4.67,0.74-6.07,4.64-5.98c4.96,0.71,9.94,0.11,14.91,0.31c2.5-0.54,3.86,0.67,4.54,2.94  C-344.23,190.28-344.31,190.6-344.53,190.87z"/>
<path class="st0" d="M-245.2,40.24c0.81-0.05,1.48,0.04,0.96,1.11c-5.13,10.51-8.69,21.68-13.51,32.33  c-0.03,0.07-0.15,0.09-0.62,0.35c0-5.67,0-11.13,0-16.6C-256.68,49.64-252.25,43.93-245.2,40.24z"/>
<path class="st11" d="M-318.81,28.75c-1.52-1.46-3.31-1.84-5.42-1.82c-10.06,0.1-20.11,0.04-30.17,0.05c-4.36,0-5.08,0.7-5.09,4.94  c-0.01,4.48-0.02,8.96,0.01,13.44c0.02,3.2,1.12,4.33,4.29,4.34c10.56,0.02,21.11-0.02,31.67,0.04c1.59,0.01,2.87-0.7,4.27-1.17  c-1.06,2.05-3.03,2.03-4.9,2.05c-5.78,0.05-11.56,0.08-17.34-0.02c-1.89-0.03-3.28,0.14-3.55,2.42c-0.14,1.21-0.96,2.19-1.86,3  c-1.35,1.21-3.01,2.57-4.76,1.82c-1.36-0.58-0.64-2.55-0.52-3.82c0.24-2.65-0.54-3.57-3.35-3.5c-3.25,0.08-4.95-1.81-5.03-5.07  c-0.12-4.78-0.11-9.57-0.01-14.35c0.07-3.4,1.83-5.25,5.2-5.27c10.67-0.09,21.33-0.07,32,0C-321.4,25.85-319.35,26.23-318.81,28.75z  "/>
<path class="st12" d="M-324.91,90.93c1.37,0.52,1.97-1.05,3.11-1.13c0.37,0.05,0.6,0.25,0.67,0.63c-0.21,0.45-1.01,1.05,0.07,1.3  c5.98,1.41,11.44,4.8,17.83,4.66c0.11,1.21,0.81,1.67,1.97,1.78c2.05,0.19,4.09,0.48,6.15,1.17c-3.43,0-7.42,1.14-10.2-0.21  c-9.27-4.49-18.85-0.97-28.18-2.12c-2.06-0.25-4.17-0.04-6.26-0.05c-0.63-0.73-1.22-1.48-1.88-2.17c-1.67-1.74-0.98-2.46,1.09-2.63  c0.45,0.16,0.57,0.52,0.6,0.95c1.08,2.31,4.55,3.2,7.34,1.78c1.33-0.67,2.58-1.49,3.63-2.59c0.6-0.68,1.47-0.68,2.24-0.9  C-326.16,91.09-325.38,91.6-324.91,90.93z"/>
<path class="st13" d="M-255.28,39.33c-1.94-3.59-1.62-5.12,1.66-7.53c1.59-1.17,3.19-2.36,4.9-3.34c2.17-1.24,4.23-0.92,5.8,1.12  c1.4,1.82,1.06,4.56-0.95,6.09c-2.35,1.8-4.9,3.34-7.36,4.99c-0.12,0.17-0.33,0.36-0.45,0.29  C-252.82,40.25-253.67,38.96-255.28,39.33z"/>
<path class="st14" d="M-210.5,190.26c0.04,0.32,0.43,0.88,0.02,0.89c-0.4,0.01-0.82-0.56-1.23-0.88c-1.08-0.56-1.87-1.37-2.49-2.45  c-7.15-12.47-14.35-24.9-21.58-37.32c-0.69-1.18-1.5-2.38-1.07-3.89c0.89-1.17,2.13-1.22,3.46-1.22c8.15,0.04,16.31,0,24.46,0.03  c1.7,0.01,3.36-0.11,4.99-0.62c-0.75,1.51-2.15,1.19-3.41,1.19c-8.26,0.02-16.52,0.01-24.77,0.01c-0.98,0-1.95,0-3.49,0  c2.61,4.59,4.96,8.79,7.37,12.95c5.48,9.44,11,18.85,16.46,28.29C-211.21,188.18-210.91,189.25-210.5,190.26z"/>
<path class="st15" d="M-202.75,142.37c0.68-1.7,0.68-3.48,0.71-5.27c0.14-9.34-0.58-18.72,0.69-28.02  c1.63-11.9,6.65-22.39,13.73-31.97c1-1.35,2.2-2.7,0.98-4.54c-0.19-0.43-0.92-0.65-0.55-1.32c2.51,1.36,2.88,2.57,1.26,5.22  c-2.48,4.05-5.34,7.85-7.61,12.06c-3.57,6.64-5.64,13.71-6.77,21.09c-0.36,2.34-0.86,4.68-0.62,7.08c-0.68,3.93-0.13,7.89-0.3,11.83  c-0.18,4.24,0.36,8.5-0.28,12.73c0,0.19-0.01,0.38-0.01,0.57C-201.93,142-202.34,142.18-202.75,142.37z"/>
<path class="st16" d="M-208.5,140.01c-1.24,0.91-2.68,0.58-4.04,0.59c-19.07,0.05-38.14,0.08-57.22,0.12  c-0.47-0.23-0.93-0.47-1.4-0.7c0.85-0.61,1.86-0.7,2.85-0.7c14.68,0.01,29.37,0.04,44.05,0.07c0.51,0.68,1.41-0.02,1.95,0.56  C-217.72,139.97-213.11,139.99-208.5,140.01z"/>
<path class="st17" d="M-253.06,113.05c0.56-1.65,1.97-1.05,3.05-1.06c12.16-0.07,24.32-0.08,36.49-0.11  c0.23-0.32,0.44-0.31,0.63,0.05c0.86,4.75,0.75,9.5,0.1,14.26c-0.75-1.67,0.93-4-1.42-5.25c-0.08-0.52-0.16-1.04-0.28-1.56  c-0.34-5.52,1.09-5.8-6.01-5.82c-9.76-0.03-19.53,0.27-29.29-0.46c-0.66,0.06-1.33-0.25-1.99,0.06  C-252.2,113.13-252.63,113.09-253.06,113.05z"/>
<path class="st18" d="M-241.02,20.39c1.28,1.28,2.54,2.64,1.48,4.59c-0.96,1.78-2.68,2.58-4.51,1.77c-1.87-0.82-2.89-2.39-1.76-4.58  C-244.69,20.3-243.17,19.5-241.02,20.39z"/>
<path class="st19" d="M-207.12,179.48c0.95-3.25,3.83-3.59,6.47-4.28c0.11,0.1,0.23,0.2,0.35,0.31c-0.36,2.41,0.34,4.94-0.82,7.26  c-1.19,0-2.37-0.04-3.55,0.01C-207.15,182.89-207.85,181.72-207.12,179.48z"/>
<path class="st20" d="M-405.63,177.65c0.24,0.04,0.49,0.08,0.73,0.11c0.09,0.59-0.25,0.98-0.71,1.18c-2.53,1.1-4.52,2.88-6.34,4.88  c-0.34,0.37-0.76,0.64-1.32,0.53c0,0-0.17-0.14-0.17-0.14c0.46-1.81-0.31-3.49-0.51-5.24c-0.34-2.95,0.3-3.48,3.23-2.67  C-409.03,176.76-407.47,177.73-405.63,177.65z"/>
<path class="st21" d="M-325.37,83.85c-2.36,1.86-4.27,4.33-7.29,5.27c-0.41,0.42-1.06,0.47-1.41,0.97c-0.6,0.81-0.96,2.03-2.4,1.49  c-0.5-0.44-0.56-0.96-0.27-1.54c2.94-3.52,6.61-5.93,10.99-7.26C-325.39,83.05-324.93,83.29-325.37,83.85z"/>
<path class="st22" d="M-207.12,179.48c-0.04,2.2,0.96,3.23,3.22,3.01c1.16-0.11,2.33-0.07,3.5-0.1l0.27-0.09l0.19,0.22  c0,0.18,0.01,0.37,0.01,0.55c-5.47,0-10.93,0.01-16.4-0.01c-0.63,0-1.63,0.32-1.74-0.62c-0.12-1.1,0.93-1.11,1.7-1.13  c1.99-0.04,3.99-0.16,5.96,0.02C-208.78,181.47-207.81,180.82-207.12,179.48z"/>
<path class="st23" d="M-212.89,111.92c-0.21-0.02-0.42-0.03-0.63-0.05c0.02-14.15,0.03-28.3,0.05-42.44  c0.17-0.29,0.33-0.27,0.48,0.01C-212.96,83.6-212.93,97.76-212.89,111.92z"/>
<path class="st10" d="M-241.02,20.39c-1.97-0.41-3.41,0.61-4.79,1.79c0.15-1.09,1.41-2.22-0.4-3.21c-0.93-0.51-1.06-1.68-0.41-2.64  c0.59-0.87,1.58-0.91,2.42-0.59c1.06,0.41,1.49,1.31,0.98,2.41C-244.5,20.91-241.21,19.11-241.02,20.39z"/>
<path class="st4" d="M-201.51,141.25c0-7.15-0.02-14.3,0.01-21.45c0-1.05-0.34-2.21,0.57-3.11c0,7.15,0.01,14.29-0.01,21.44  C-200.94,139.19-200.63,140.34-201.51,141.25z"/>
<path class="st24" d="M-325.37,83.85c-0.13-0.36-0.26-0.71-0.39-1.07c3.49-1.67,6.97-4.01,10.56-0.2c-0.45,0.41-0.94,0.3-1.43,0.11  C-319.93,80.17-322.49,83.19-325.37,83.85z"/>
<path class="st25" d="M-316.63,82.69c0.48-0.04,0.95-0.07,1.43-0.11c4.57-0.96,9.14-0.87,13.72-0.1c-3.96,0-7.92,0-11.98,0  c0.17,0.91,0.86,0.94,1.25,1.28c0.01,1.04-0.51,1.05-1.25,0.65C-314.51,83.84-315.57,83.26-316.63,82.69z"/>
<path class="st26" d="M-212.99,69.44c-0.16,0-0.32-0.01-0.48-0.01c0-4.03,0-8.06,0-12.08C-212.28,61.34-213.09,65.41-212.99,69.44z"/>
<path class="st27" d="M-191.93,75.33c-1.06,2.83-3.06,5.06-4.78,7.47C-195.96,79.77-194.16,77.42-191.93,75.33z"/>
<path class="st28" d="M-255.28,39.33c1.53,0.84,1.53-0.52,1.76-1.39c1.51,0.42,0.38,2.79,2.29,2.72  C-253.04,41.61-254.33,40.99-255.28,39.33z"/>
<path class="st29" d="M-340.37,93.12c-0.05-0.32-0.11-0.64-0.16-0.96c0.24,0.01,0.48,0.01,0.71,0.02c1-0.62,1.99-1.32,3.23-0.57  c0.47,1.47-0.43,2.16-1.58,2.59C-339.19,94.56-340.08,94.38-340.37,93.12z"/>
<path class="st27" d="M-187.18,71.24c0.18,0.44,0.36,0.88,0.55,1.32c-1.81-1.21-2.9,0.42-4.22,1.09  C-190.42,71.65-189.07,71.04-187.18,71.24z"/>
<path class="st30" d="M-336.48,91.57c-1.2-0.25-2.1,1.07-3.34,0.61c0.18-1.93,2.15-1.28,3.08-2.14c0.2,0.51,0.4,1.02,0.6,1.53  C-336.26,91.57-336.37,91.57-336.48,91.57z"/>
<path class="st31" d="M-222.32,139.95c-0.72,0.07-1.45,0.16-1.95-0.56c1.03-0.19,2.06-0.37,3.09-0.56  C-221.56,139.21-221.94,139.58-222.32,139.95z"/>
<path class="st0" d="M-276.37,190.87c-4.37,0.38-8.73,0.33-13.1,0.01c-0.96-1.21-1.08-2.43-0.1-3.69c3.84-0.51,7.74,0.07,10.72-0.23  c-3.02-0.05-6.89,0.24-10.78-0.2c-1.44-3.31-0.51-6.76-0.63-10.15c0.51-2.18,2.25-2.24,3.98-2.26c1.88-0.03,3.73,0.63,5.63,0.27  c1.43,0.24,2.86,0.48,4.28,0.72c0.24,0.3,0.35,0.65,0.32,1.04C-276.23,181.2-275.6,186.05-276.37,190.87z"/>
<path class="st32" d="M-280.64,174.62c-1.81,1.56-3.96,0.41-5.93,0.77c-1.06,0.19-2.48-0.6-3.02,1.07  c-0.66,0.37-1.34,0.15-2.01,0.07c-2.84-0.31-5.7-0.1-8.54-0.18c-1.37-0.04-2.78,0.07-3.93-0.91c-0.91-2.3-1.09-4.58,0.18-6.82  c1.4-0.96,2.86-0.47,4.26-0.05c2.36,0.7,4.8,1.13,7.06,2.12c0.87,0.78,2.11,0.57,3.06,1.14  C-286.77,173.45-283.54,173.5-280.64,174.62z"/>
<path class="st33" d="M-289.51,171.82c-1.04,0.34-2.12,1.11-3.04-0.22c1.14-1.82,0.73-3.86,0.73-5.8  c0.05-16.17,0.02-32.35,0.04-48.52c0-1.76-0.26-3.59,0.78-5.22c0.49-0.5,1.02-0.5,1.58-0.13  C-289.45,131.89-289.48,151.85-289.51,171.82z"/>
<path class="st34" d="M-251.77,113.17c0.29-0.56,0.8-0.61,1.35-0.55c11.53,0.99,22.66,4.07,33.96,6.28  c1.08,0.21,2.13,0.52,2.93,1.36c-0.23,0.23-0.45,0.46-0.68,0.68C-226.73,118.35-239.25,115.76-251.77,113.17z"/>
<path class="st35" d="M-276.3,175.94c-0.02-0.2-0.04-0.4-0.06-0.6c0.04-11.02,0.06-22.05,0.16-33.07c0.01-1.27-0.64-2.01-1.38-2.81  c0.07-0.37,0.29-0.59,0.66-0.65c0.68,0.41,1.37,0.81,2.05,1.22c-0.87,0.47-0.75,1.3-0.74,2.07c0.02,5.9,0.05,11.79,0.07,17.69  c1.36,5.02,1.59,10.04,0,15.06c-0.09,0.35-0.18,0.69-0.26,1.04C-275.94,176.2-276.1,176.22-276.3,175.94z"/>
<path class="st4" d="M-289.41,111.92c-0.45,0.01-0.9,0.01-1.35,0.02c-0.43,0.33-0.83,0.28-1.21-0.09c0.14-0.84,0.59-0.98,1.29-0.58  c0.41-0.01,0.81-0.01,1.22-0.02c1.21-1.12,2.73-1.05,4.21-1.05c7.33-0.03,14.66-0.03,22,0c1.47,0.01,3.01-0.11,4.21,1.03  c0,0,0.19,0.18,0.19,0.18c-0.01,0.15,0.02,0.29,0.09,0.42C-268.98,111.86-279.2,111.89-289.41,111.92z"/>
<path class="st35" d="M-281.15,137.11c-1.19-0.3-2.11-1.06-3-1.84c0.07-0.4,0.31-0.63,0.69-0.72c1.11,0.43,2.18,0.93,2.95,1.9  C-280.56,136.81-280.78,137.04-281.15,137.11z"/>
<path class="st36" d="M-283.46,134.55c-0.23,0.24-0.46,0.48-0.69,0.72c-0.76-0.23-1.35-0.65-1.71-1.55  C-284.68,133.14-284.11,133.96-283.46,134.55z"/>
<path class="st37" d="M-276.92,138.81c-0.22,0.22-0.44,0.43-0.66,0.65c-0.71-0.32-1.47-0.57-1.63-1.49l0.03-0.09  C-278.16,137.56-277.57,138.26-276.92,138.81z"/>
<path class="st38" d="M-279.18,137.87c0,0-0.03,0.09-0.03,0.09c-0.95,0.42-1.38-0.38-1.94-0.85c0.21-0.22,0.43-0.45,0.64-0.67  C-279.97,136.84-278.91,136.74-279.18,137.87z"/>
<path class="st39" d="M-259.05,111.24c-10.14,0.01-20.28,0.01-30.42,0.02c0-0.89,0.04-1.79-0.02-2.67  c-0.11-1.55,0.62-2.19,2.12-2.06c2.78,0.25,4.13-0.96,3.87-3.8c-0.21-2.29,1.22-2.32,2.87-2.09c7.21,0.98,14.43,1.95,21.64,2.93  C-259.01,106.13-259.03,108.68-259.05,111.24z"/>
<path class="st40" d="M-260.65,81.39c2.34,2.37,3.99,5.24,5.55,8.48c-5.66-2.64-11.31-5.27-16.97-7.91  c-0.07-0.46,0.13-0.81,0.58-0.8C-267.87,81.24-264.25,80.78-260.65,81.39z"/>
<path class="st41" d="M-260.65,81.39c-3.8,0.37-7.67-0.69-11.42,0.57c-0.35-0.16-0.78-0.24-1.02-0.49c-0.48-0.49,0-0.7,0.39-0.68  C-268.69,81.02-264.61,80.14-260.65,81.39z"/>
<path class="st42" d="M-257.77,103.46c-0.33,2.6,0.71,5.31-0.59,7.84C-258.08,108.69-259.13,105.98-257.77,103.46z"/>
<path class="st43" d="M-350.51,37.74c0.98-0.99,2.16-1.62,3.5-1.97c0.33,0.24,0.36,0.52,0.1,0.83c-0.33,0.99-2.23,0.75-1.81,2.32  C-349.81,39.27-350,38.27-350.51,37.74z"/>
<path class="st44" d="M-331.88,39.56c-0.94,1-2.14,1.42-4.05,2.18c1.14-1.84,2.33-2.2,3.4-2.72  C-332.27,39.15-331.94,39.19-331.88,39.56z"/>
<path class="st45" d="M-340.25,36.6c0.31-0.83,0.19-1.96,1.65-2.3c0.18,1.3-0.44,2.13-1.07,2.95  C-340.07,37.2-340.13,36.87-340.25,36.6z"/>
<path class="st46" d="M-342.66,41.97c0.23-0.87,0.25-1.89,1.64-2.27c0.16,1.29-0.45,2.11-1.07,2.92  C-342.46,42.57-342.52,42.24-342.66,41.97z"/>
<path class="st47" d="M-333.56,36.55c-1.45-0.11-2.29-0.34-2.64-1.55C-334.89,34.5-334.25,35.13-333.56,36.55z"/>
<path class="st48" d="M-331.88,39.56c-0.22-0.18-0.43-0.36-0.65-0.53c0.25-0.59,0.51-1.18,0.76-1.78c0.28,0.22,0.71,0.38,0.8,0.66  C-330.69,38.72-330.84,39.42-331.88,39.56z"/>
<path class="st49" d="M-350.51,37.74c0.9-0.07,1.13,0.88,1.79,1.18c0,0,0.02-0.01,0.02-0.01c0.13,0.53,0.01,0.83-0.61,0.61  C-349.74,38.95-351.7,39.41-350.51,37.74z"/>
<path class="st50" d="M-346.9,16.59c-0.03-0.28-0.07-0.55-0.1-0.83c0.53-0.63,1.14-1.07,2.09-0.86  C-345.09,16.08-346.07,16.26-346.9,16.59z"/>
<path class="st51" d="M-349.3,39.52c0.2-0.2,0.41-0.41,0.61-0.61c0.79,0.41,2.17,0.22,1.79,1.79l-0.02,0.04  C-347.99,40.86-348.69,40.28-349.3,39.52z"/>
<path class="st52" d="M-346.9,40.7c0.68-0.34,1.32-0.45,1.65,0.43c0.07,0.19-0.1,0.67-0.23,0.7c-0.86,0.2-1.13-0.49-1.44-1.09  C-346.93,40.74-346.9,40.7-346.9,40.7z"/>
<path class="st53" d="M-342.66,41.97c0.19,0.22,0.38,0.44,0.57,0.65c0.07,0.77-0.67,1.65-0.94,1.44  C-343.94,43.37-343.08,42.64-342.66,41.97z"/>
<path class="st54" d="M-340.25,36.6c0.19,0.22,0.38,0.44,0.57,0.65c0,0.73-0.18,1.35-0.95,1.67  C-341.41,37.99-340.48,37.35-340.25,36.6z"/>
<path class="st1" d="M-290.69,111.28c-0.4,0.21-0.8,0.41-1.21,0.62c-0.22,0.9-0.96,1.21-1.71,1.46c-5.64,1.85-8.68,5.86-9.7,11.58  c-0.36,1.27-0.25,2.57-0.25,3.85c-0.01,10.61-0.12,21.21,0.05,31.82c0.07,4.66-0.89,9.25-0.63,13.9c0,1.38-1.08,1.63-2.03,1.63  c-4.8-0.01-8.34,2.01-10.57,6.29c-0.18,0.35-0.56,0.54-0.95,0.67c-1.07,2.32-0.25,4.78-0.54,7.16c-2.33,0.73-4.73,0.32-7.08,0.3  c-6.45-0.06-12.91,0.36-19.35-0.21c-0.78-1.33-1.2-3.03-3.21-3.07c-0.32-0.03-0.41-0.19-0.27-0.47c-1.61-0.82-2.21-2.28-2.78-3.9  c-1.53-4.3-3.45-8.39-7.35-11.15c-3.87-4.73-9.37-6.17-14.99-7.06c-2.02-0.32-2.39-1.05-2.39-2.83c0.04-17.54,0.05-35.07-0.01-52.61  c-0.01-2.08,0.64-2.75,2.73-2.74c26.51,0.06,53.02,0.08,79.54,0C-289.2,106.47-291.13,109.42-290.69,111.28z"/>
<path class="st0" d="M-412.75,191.52c-0.13-0.11-0.29-0.15-0.46-0.13c-2.83-2.32-0.59-4.69-0.07-7.04c2.07-3.11,4.88-5.29,8.38-6.59  c4.96-0.34,10.06,0.79,14.81-1.83c1.4-0.77,2.5,0.34,2.26,2.03c-0.26,1.85-0.71,3.68-1.03,5.52c-0.25,1.47-1.3,1.52-2.45,1.54  c-1.87,0.03-3.75-0.25-5.61,0.39c-2.61,0.9-4.33,2.34-3.84,5.39c-1.96,0.86-4.06-0.03-6.05,0.52  C-408.79,191.39-410.77,191.46-412.75,191.52z"/>
<path class="st55" d="M-384.59,191.41c-0.03-2.54,1.46-3.96,3.51-4.57c1.64-0.49,2.32-1.5,3.04-2.89  c3.45-6.65,9.07-10.31,16.4-11.38c0.78-0.11,2.15-0.6,2.28,0.6c0.13,1.25-1.27,0.87-2.07,0.97c-7.22,0.97-12.62,4.49-15.72,11.22  c-0.63,1.37-1.14,2.57-3.03,2.78C-382.11,188.34-383.14,190.21-384.59,191.41z"/>
<path class="st56" d="M-348.16,186.78c0.08,0.16,0.17,0.32,0.26,0.47c-4.44,0.01-8.88,0.03-13.32,0.02c-0.87,0-1.8,0.15-2.51-0.59  C-358.53,186.71-353.35,186.75-348.16,186.78z"/>
<path class="st57" d="M-406.81,191.33c1.95-0.98,4.05-0.18,6.05-0.52C-402.67,192.22-404.79,191.24-406.81,191.33z"/>
<path class="st58" d="M-333.12,104.73c-14.96,0-29.91,0.01-44.87-0.02c-1.26,0-3,0.59-3.03-1.74c-0.03-2.31,1.66-1.82,2.95-1.82  c29.91-0.02,59.82-0.02,89.74,0.01c1.26,0,2.99-0.59,3.03,1.74c0.03,2.32-1.66,1.81-2.95,1.82  C-303.21,104.74-318.17,104.73-333.12,104.73z"/>
<path class="st59" d="M-378.46,56.65c6.92,13.39,13.84,26.78,20.76,40.17c-0.27,0.14-0.55,0.28-0.82,0.42  c-6.91-13.4-13.82-26.81-20.74-40.21C-378.99,56.9-378.72,56.78-378.46,56.65z"/>
<path class="st60" d="M-354.61,98.9c15.09,0,30.19,0,45.28,0c0,0.1,0,0.2,0,0.3c-15.09,0-30.19,0-45.28,0  C-354.61,99.1-354.61,99-354.61,98.9z"/>
<path class="st1" d="M-236.84,146.61c8.38,14.55,16.76,29.11,25.14,43.66c-14.32,0-28.63,0.01-42.95-0.01  c-1.05,0-2.21,0.36-3.11-0.58c-1-1.76,0.55-2.51,1.45-3.41c5.97-5.94,11.71-12.11,17.35-18.37c1.34-1.49,2.71-2.89,4.28-4.12  c1.65-1.3,1.66-2.58-0.09-3.82c-1.71-1.21-3.07-2.83-4.69-4.14c-0.87-0.71-1.6-1.5-1.62-2.72c0.52-2.39,1.56-4.47,3.64-5.9  C-237.24,147.01-237.04,146.81-236.84,146.61z"/>
<path class="st61" d="M-263.22,171.66c2.17-0.63,3.18-2.62,4.6-4.08c4.71-4.85,9.31-9.82,13.97-14.72c0.65-0.68,1.16-1.71,2.4-1.45  c0.1,0.08,0.21,0.16,0.31,0.24c0.14,0.22,0.24,0.47,0.29,0.73c0.12,0.94-0.24,1.8-0.49,2.67c-0.08,0.24-0.19,0.47-0.32,0.7  c-0.53,0.82-1.31,1.5-1.45,2.55c-0.18,0.62-0.45,1.19-0.84,1.7c-0.63,0.77-1.41,1.44-1.55,2.51c-0.19,0.63-0.49,1.19-0.93,1.68  c-0.78,0.67-1.29,1.51-1.59,2.49c-0.1,0.24-0.22,0.46-0.36,0.67c-0.51,0.72-1.16,1.35-1.28,2.28c-0.18,0.63-0.47,1.21-0.87,1.74  c-0.64,0.78-1.43,1.46-1.54,2.55c-0.29,1.03-0.73,1.98-1.48,2.77c-0.68,0.58-1.24,1.26-1.64,2.06c-0.54,0.86-1.16,1.69-1.36,2.72  c-0.15,0.51-0.39,0.98-0.71,1.4c-0.58,0.71-1.23,1.37-1.48,2.29c-0.11,0.26-0.24,0.51-0.39,0.74c-1.13,1-1.49,3.05-3.64,2.66  c-5.59-4.19-6.2-11.06-1.43-16C-264.5,172.09-264.03,171.56-263.22,171.66z"/>
<path class="st1" d="M-263.22,171.66c-0.81,1.1-1.65,2.17-2.42,3.3c-2.94,4.36-2.1,8.77,2.53,13.34c0.26,0.27,0.24,0.53-0.05,0.77  c-0.74,1.5-2.14,1.18-3.39,1.2c-8.58,0.09-8.53,0.08-8.61-8.39c-0.02-2.34,0.52-4.74-0.39-7.04c0-5.02,0-10.04,0-15.06  C-270.9,163.2-267.06,167.42-263.22,171.66z"/>
<path class="st62" d="M-242.25,151.42c-0.18-0.22-0.36-0.44-0.55-0.66c-2.27-0.79-3.62-2.56-5.17-4.68  c3.03-0.68,5.76-0.23,8.46-0.35c0.54-0.02,0.94,0.21,1.12,0.76c0.51,1.58-1.91,4.68-3.85,4.93L-242.25,151.42z"/>
<path class="st14" d="M-242.24,151.42c0.35-0.16,0.83-0.23,1.03-0.5c0.98-1.33,2.67-2.79,2.11-4.29c-0.54-1.43-2.64-0.46-4.04-0.6  c-1.26-0.13-2.54-0.03-4.13-0.03c1.09,2.25,2.91,3.39,4.49,4.75c-3.21-0.21-4.13-3.2-6.05-5.33c3.11,0,6.21,0.06,9.32-0.03  c1.36-0.04,1.38,1.23,2.09,1.8c-0.7,2.15-2.6,3.7-2.98,6c-0.2,0.19-0.43,0.29-0.71,0.3c-0.9-0.18-0.69-1.03-0.97-1.58  C-242.19,151.77-242.24,151.6-242.24,151.42z"/>
<path class="st63" d="M-326.57,91.61c-0.64,0.43-1.28,0.86-1.92,1.29c-1.88,0.74-3.24,0.06-4.25-1.57  c-0.01-0.53,0.29-0.83,0.77-0.98c0.58,0.21,1.17,0.42,1.75,0.64C-329.09,91.74-327.68,90.79-326.57,91.61z"/>
<path class="st64" d="M-331.96,90.36c-0.24,0.21-0.47,0.43-0.71,0.64c-1.25-0.02-2-0.5-1.68-1.91c0.58-0.85,1.14-0.41,1.69,0.03  C-332.42,89.53-332.19,89.95-331.96,90.36z"/>
<path class="st65" d="M-326.57,91.61c-1.21-0.23-2.53,0.2-3.64-0.62c1.77-0.02,3.53-0.04,5.3-0.06  C-325.25,91.67-326.08,91.23-326.57,91.61z"/>
<path class="st66" d="M-313.45,84.41c0.47-0.11,1.04-0.03,1.25-0.65c0.74,0.1,1.65,0.56,1.14,1.21  C-311.91,86.07-312.72,84.99-313.45,84.41z"/>
<path class="st67" d="M-321.13,90.42c-0.22-0.21-0.45-0.42-0.67-0.63c0.42-0.42,0.92-0.91,1.37-0.17  C-320.03,90.27-320.67,90.34-321.13,90.42z"/>
<path class="st68" d="M-240.92,153.23c0.17-0.01,0.34-0.01,0.51-0.02c1.88,2.39,4.16,4.39,6.51,6.27c1.92,1.53,2.35,2.94,0.34,4.45  c-4.7,3.53-7.82,8.57-12.14,12.5c-4.06,3.69-7.26,8.33-11.48,11.95c-0.33,0.28-0.39,0.87-0.57,1.32c-1.24,1.29-2.48,1.58-3.72,0  c-0.98-1.82,0.62-2.83,1.29-4.14c0.02-0.25,0.05-0.49,0.07-0.74c0.68-0.69,1.18-1.51,1.73-2.29c0.21-0.39,0.41-0.77,0.62-1.16  c0.36-1.08,1.17-1.92,1.56-2.98c0.45-0.59,0.84-1.23,1.34-1.78c0.44-1.05,0.88-2.09,1.32-3.14c0.68-0.68,1.18-1.49,1.72-2.27  c0.22-0.62,0.44-1.24,0.67-1.86c0.68-0.73,1.19-1.6,1.78-2.4l-0.04,0.06c0.69-0.92,0.87-2.15,1.77-2.95  c0.23-0.65,0.46-1.29,0.69-1.94c0.68-0.68,1.18-1.49,1.72-2.27c0.22-0.62,0.44-1.24,0.67-1.86c0.67-0.72,1.18-1.56,1.74-2.36  c0.02-0.22,0.05-0.44,0.07-0.66C-242.14,154.38-241.86,153.44-240.92,153.23z"/>
<path class="st61" d="M-317.7,183.08c1.8-5.39,4.73-7.57,10.31-7.69c0.99-0.02,1.98-0.12,2.97-0.18c0.18-0.22,0.37-0.22,0.55,0  c3.48,0.06,6.96,0.1,10.44,0.19c0.96,0.03,2.01-0.33,2.84,0.49c0.79,3.66,0.84,7.33,0.02,11c-1.03,0.82-2.26,0.66-3.43,0.67  c-6.66,0.02-13.31,0.02-19.97,0c-1.28,0-2.62,0.14-3.61-0.98C-317.62,185.41-317.66,184.25-317.7,183.08z"/>
<path class="st69" d="M-317.61,190.86c0.01-1.16,0.01-2.32,0.02-3.49c0.58-0.58,1.31-0.37,1.99-0.37c8.27,0.05,16.55-0.15,24.82,0.1  c1.06,1.23,0.8,2.51,0.15,3.81l-0.03,0.03C-299.65,191.28-308.63,191.42-317.61,190.86z"/>
<path class="st70" d="M-290.63,190.91c-0.04-1.17-0.07-2.34-0.11-3.51c-0.3-0.28-0.31-0.56-0.01-0.84c0.05-3.56,0.1-7.11,0.15-10.67  c0.34,0.19,0.67,0.38,1.01,0.57c0.06,3.35,0.13,6.71,0.19,10.06c0.27,0.31,0.27,0.62,0,0.94c-0.03,1.14-0.05,2.29-0.08,3.43  C-289.86,190.89-290.25,190.9-290.63,190.91z"/>
<path class="st71" d="M-290.75,186.56c0,0.28,0,0.56,0.01,0.84c-8.95-0.01-17.9-0.02-26.84-0.03c0-0.26,0-0.53,0.01-0.79  C-308.64,186.57-299.69,186.56-290.75,186.56z"/>
<path class="st70" d="M-317.61,190.86c8.98,0.03,17.96,0.05,26.94,0.08c-0.49,0.65-1.21,0.59-1.9,0.59c-7.73,0-15.46,0-23.19,0  C-316.44,191.52-317.16,191.56-317.61,190.86z"/>
<path class="st72" d="M-344.68,190.32c8.81-0.03,17.63-0.05,26.44-0.08c-0.86,1.01-2.03,0.61-3.07,0.62  c-7.74,0.03-15.48,0.02-23.22,0.02C-344.66,190.71-344.71,190.53-344.68,190.32z"/>
<path class="st73" d="M-276.3,175.94c0.16-0.02,0.33-0.04,0.5-0.05c0.03,4.38,0.07,8.77,0.09,13.15c0,0.67,0.13,1.43-0.67,1.83  C-276.35,185.89-276.32,180.91-276.3,175.94z"/>
<path class="st74" d="M-260.19,185.55c-0.17,1.46-1.57,2.54-1.29,4.14c-0.56-0.2-1.12-0.41-1.68-0.61c0.02-0.26,0.03-0.51,0.05-0.77  C-261.53,188.03-261.76,185.84-260.19,185.55z"/>
<path class="st65" d="M-334.35,89.09c0.24,0.92,0.78,1.57,1.68,1.91c1.1,1.28,2.71,1.44,4.19,1.9c-4.22,4.04-9.1,4.72-12.25,1.74  c-0.86-0.81-1.23-1.36,0.36-1.53c2.18,1.71,2.89-0.27,3.89-1.55c0.11,0.07,0.23,0.07,0.34,0  C-334.87,91.23-335.41,89.58-334.35,89.09z"/>
<path class="st20" d="M-213.53,120.25c-8.16-1.62-16.33-3.22-24.48-4.88c-4.15-0.85-8.28-1.84-12.41-2.76  c11.42-0.02,22.84,0,34.26-0.12c2.09-0.02,2.88,0.62,2.7,2.7C-213.61,116.87-213.52,118.57-213.53,120.25z"/>
<path class="st71" d="M-289.39,187.45c0-0.31,0-0.62,0-0.94c3.94,0,7.88,0,11.82,0c0,0.31,0.01,0.62,0.01,0.94  C-281.51,187.45-285.45,187.45-289.39,187.45z"/>
<path class="st75" d="M-303.93,123.83c1.37-6.64,5.57-10.42,12.03-11.93c0.38,0.01,0.75,0.03,1.13,0.04  c0.04,13.89,0.09,27.78,0.13,41.66c0.01,5.36-0.04,10.72,0.03,16.07c0.02,1.47-0.31,2.27-1.94,1.92c-3.51-0.97-7.02-1.94-10.54-2.91  c-1.13-0.36-1.06-1.3-1.05-2.2c0.02-14.03-0.03-28.06,0.03-42.09C-304.11,124.2-303.99,124.01-303.93,123.83z"/>
<path class="st76" d="M-303.93,123.83c0.02,13.73,0.03,27.46,0.05,41.2c0,1.28-0.22,2.6,0.79,3.67c-1.59,2.01-0.37,4.37-0.79,6.52  c0,0-0.28,0.04-0.28,0.04s-0.28-0.04-0.28-0.04c-0.02-15.79-0.05-31.57-0.04-47.36C-304.47,126.51-304.87,125.06-303.93,123.83z"/>
<path class="st77" d="M-395.11,180.43c1.89-0.54,3.13-1.93,4.31-0.78c0.72,0.7,0.23,2.52-0.57,2.9  C-392.93,183.28-393.37,181.32-395.11,180.43z"/>
<path class="st78" d="M-402.61,185.74c0.28,0.29,1.11-0.24,0.99,0.61c-0.07,0.49-0.44,0.88-1,0.88c-0.57,0-0.89-0.44-0.95-0.92  C-403.67,185.52-403.11,185.64-402.61,185.74z"/>
<path class="st79" d="M-255.97,178.33c-0.31,1.18-0.68,2.33-1.8,3.03c-0.49-1.42,0.82-2.01,1.36-2.96  C-256.32,178.08-256.17,178.07-255.97,178.33z"/>
<path class="st80" d="M-247.65,164.03c-0.12,1.26-0.74,2.23-1.77,2.95C-249.2,165.77-249.38,164.33-247.65,164.03z"/>
<path class="st81" d="M-240.92,153.23c-0.52,0.67-0.72,1.68-1.84,1.71c0.22-1,0.45-2.01,0.67-3.02  C-241.71,152.35-241.31,152.79-240.92,153.23z"/>
<path class="st82" d="M-242.84,155.59c-0.12,1.12-0.36,2.17-1.74,2.36C-244.52,156.78-243.85,156.06-242.84,155.59z"/>
<path class="st82" d="M-249.37,166.92c-0.19,1.1-0.36,2.21-1.78,2.4C-251.09,168.13-250.43,167.38-249.37,166.92z"/>
<path class="st83" d="M-251.82,171.18c-0.16,1.07-0.34,2.13-1.72,2.27C-253.52,172.28-252.81,171.63-251.82,171.18z"/>
<path class="st83" d="M-245.24,159.81c-0.16,1.07-0.34,2.13-1.72,2.27C-246.94,160.91-246.23,160.26-245.24,159.81z"/>
<path class="st84" d="M-258.39,182.51c-0.1,1.12-0.37,2.12-1.73,2.29C-260.07,183.64-259.39,182.96-258.39,182.51z"/>
<path class="st84" d="M-255.97,178.33c-0.14,0.04-0.29,0.07-0.44,0.08c0.15-0.92,0.36-1.78,1.55-1.8  C-254.97,177.34-255.1,178.07-255.97,178.33z"/>
<path class="st85" d="M123.19,242.15c12.19,4.79,17.08-5.18,17.08-5.18L135,236.4L123.19,242.15z"/>
<path class="st0" d="M139.84,236.4c0.54,0.32,0.34,1.05,0.42,3.98c0.08,2.96,0.32,3.12,0.02,3.62c-0.78,1.28-2.8,0.96-8.34,1.17  c-5.96,0.23-7.51,0.74-9.31-0.52c-0.3-0.21-2.02-1.41-2.05-3.24c-0.02-1.53,1.15-2.92,2.48-3.47c1.61-0.67,3.45,1.09,5.98,1.9  c2.74,0.87,3.44,0.45,4.51,0.02c1.45-0.58,2.03-2.81,2.07-2.79c0.02,0.01-0.26,0.4-0.14,0.55  C135.82,238.02,138.66,235.7,139.84,236.4z"/>
<g>
	<path class="st4" d="M167.63,169.69c0,0,0.28-0.01,0.77-0.04c0.49-0.03,1.21-0.07,2.09-0.13c1.75-0.08,4.14-0.21,6.56,0.41   c0.62,0.16,1.24,0.34,1.86,0.5c0.62,0.16,1.25,0.29,1.85,0.38c1.2,0.17,2.28,0.17,3.19,0.1c0.46-0.04,0.88-0.11,1.24-0.22   c0.36-0.11,0.65-0.27,0.85-0.42c0.21-0.16,0.33-0.31,0.41-0.42c0.07-0.11,0.1-0.17,0.1-0.17s-0.05,0.04-0.15,0.13   c-0.1,0.07-0.26,0.18-0.48,0.26c-0.44,0.17-1.12,0.22-1.95,0.1c-0.85-0.11-1.86-0.3-2.94-0.58c-0.54-0.14-1.1-0.31-1.68-0.51   c-0.59-0.19-1.21-0.41-1.9-0.58c-1.38-0.35-2.77-0.4-3.97-0.29c-1.21,0.11-2.25,0.35-3.11,0.58c3.11-0.85,2.1-0.82-2.01,0.63   C167.89,169.59,167.63,169.69,167.63,169.69z"/>
</g>
<path class="st86" d="M185.35,143.15c0.52,1.2,1.25,2.3,2.08,3.32c1.85,2.26,4.44,4.18,7.41,4.37c-1.49-0.53-2.84-1.42-3.92-2.54  c0.18,0.11,0.36,0.23,0.55,0.33c2.04,1.11,4.57,1.54,6.85,1.06c-0.94-0.98-1.55-2.2-1.91-3.49c-0.26-0.91-0.39-1.86-0.42-2.8  c-0.08-2.28,0.36-4.53,0.69-6.79c0.53-3.65,0.89-7.43,0.76-11.13c-0.1-2.96-1.1-6.18-3.43-8.23c-1.21-1.06-2.94-1.53-4.54-1.22  c-1.3,0.25-2.49,1.01-3.25,2.05c-0.18,0.24-0.33,0.49-0.46,0.75c-0.19,0.4-0.3,0.72-0.04,1.08c0.26,0.37,0.61,0.66,0.93,0.98  c0.88,0.9,1.4,2.02,1.67,3.23c-0.14,0.11-0.28,0.23-0.41,0.36c-0.83,0.8-1.38,1.83-1.82,2.88c-1.2,2.81-1.75,5.85-1.83,8.89  C184.19,138.6,184.41,140.99,185.35,143.15z"/>
<path class="st87" d="M186.22,118.08c0.13,0.48,0.34,0.94,0.63,1.34c1.41-0.06,2.69,0.93,3.32,2.15c0.63,1.21,0.74,2.62,0.75,3.98  c0.02,2.04-0.14,4.08-0.47,6.1c-0.35,2.13-0.89,4.25-0.86,6.4c0.03,2.15,0.74,4.42,2.46,5.8c-0.07-1.27,0.15-2.56,0.65-3.73  c0.18,2.43,1.63,4.71,3.71,6.07c-0.26-0.91-0.39-1.86-0.42-2.8c-0.06-1.66,0.16-3.31,0.41-4.96c0.09-0.61,0.19-1.22,0.28-1.83  c0.53-3.65,0.89-7.43,0.76-11.13c-0.1-2.96-1.1-6.18-3.43-8.23c-1.21-1.06-2.94-1.53-4.54-1.22c-0.44,0.08-0.88,0.23-1.28,0.43  C187.41,116.83,186.73,117.39,186.22,118.08z"/>
<path class="st88" d="M188.19,116.46c1.41,0.94,2.83,1.87,3.54,3.34c0.32,0.66,0.46,1.38,0.6,2.1c0.19,0.97,0.38,1.95,0.42,2.94  c0.07,1.73-0.32,3.44-0.44,5.17c-0.14,2.04,0.13,4.1,0.77,6.05c0.26-0.93,0.65-1.82,1.15-2.65c0.09,1.86,1.02,3.51,2.17,5.03  c0.09-0.61,0.19-1.22,0.28-1.83c0.53-3.65,0.89-7.43,0.76-11.13c-0.1-2.96-1.1-6.18-3.43-8.23c-1.21-1.06-2.94-1.53-4.54-1.22  C189.03,116.11,188.6,116.26,188.19,116.46z"/>
<path class="st0" d="M183,120.33c0,1.63,1.36,2.94,3.05,2.94c1.68,0,3.05-1.32,3.05-2.94c0-1.63-1.36-2.94-3.05-2.94  C184.36,117.38,183,118.7,183,120.33z"/>
<path class="st85" d="M174.82,155.03l6.77-7.3c-0.01-1.08-0.11-1.49-0.21-4.17c-0.11-2.98-0.22-5.78-0.22-5.78l-8.71,3.33  c0.97,2.11,1.41,4.5,1.56,6.79C174.32,152.72,174.82,155.03,174.82,155.03z"/>
<path class="st85" d="M163.31,133.11c0.18,0.78,0.4,1.6,0.68,2.45c0,0-0.39,4.22,0.07,5.16c0.46,0.95,3.39,6.84,6.48,6.47  c2.57-0.3,8.87-3.95,11.05-6.12c0.44-0.43,0.71-0.8,0.76-1.08c0.3-1.67,1.33-9.05,1.43-9.67c0.26-1.67,0.99-14.34-14.86-10.82  c-2.85,0.64-5.11,2.77-5.75,5.54C162.7,127.03,162.55,129.71,163.31,133.11z"/>
<path class="st86" d="M160.82,125.23c0.01,0.67,0.2,1.33,0.42,1.97c0.44,1.29,1.06,2.58,2.16,3.42c-0.13-1.71-0.05-3.43,0.24-5.12  c3.78,3.98,11.69,5.34,12.01,5.4c-1.5-0.44-1.95-3.34-1.95-3.34c1.81,4.07,9.72,4.91,9.72,4.91c1.89-1.49,3.21,1.33,3.21,1.33  c0.64-1.15,1.17-2.18,1.59-3.14c0.11-0.25,0.21-0.5,0.3-0.74c0.25-0.65,0.43-1.31,0.54-1.97c1.05-6.11-3.68-12.11-9.77-13.82  c-0.01,0-0.01,0-0.02,0c-5.76-1.61-12.57-0.14-15.78,2.94c-0.58,0.56-1.05,1.17-1.37,1.83c-0.05,0.1-0.09,0.2-0.13,0.3  c-0.01,0.03-0.02,0.06-0.04,0.09c-0.22,0.57-0.33,1.18-0.31,1.8c0.01,0.38,0.06,0.75,0.14,1.11  C161.24,123.1,160.81,124.2,160.82,125.23z"/>
<path class="st86" d="M162.01,119.19c0.34,0.18,0.71,0.32,1.08,0.42c0.76,0.19,1.56,0.21,2.33,0.41c0.92,0.24,1.77,0.75,2.4,1.44  c1.12,1.23,1.61,3.05,3.12,3.79c1.04,0.51,2.3,0.35,3.43,0.06c1.13-0.29,2.25-0.72,3.42-0.68c1.84,0.05,3.46,1.22,4.61,2.61  c0.34,0.41,0.66,0.85,1.11,1.15c0.63,0.41,1.43,0.49,2.19,0.45c1.18-0.06,2.34-0.37,3.38-0.9c0.34-1.99,0.07-3.97-0.66-5.8  c-1.51-3.77-5-6.87-9.11-8.02c-0.01,0-0.01,0-0.02,0c-3.76-1.05-7.96-0.79-11.32,0.38c-1.79,0.62-3.35,1.49-4.46,2.56  c-0.58,0.56-1.05,1.17-1.37,1.83C162.09,118.99,162.05,119.09,162.01,119.19z"/>
<path class="st86" d="M167.97,114.5c1.86,1.47,2.81,4.04,5.06,4.85c1.31,0.47,2.75,0.22,4.14,0.07c1.38-0.15,2.91-0.16,4.01,0.67  c0.57,0.44,0.96,1.06,1.5,1.53c1.14,0.99,2.84,1.2,4.35,0.91c0.47-0.09,0.93-0.22,1.38-0.39c-1.51-3.77-5-6.87-9.11-8.02  c-0.01,0-0.01,0-0.02,0C175.53,113.08,171.32,113.34,167.97,114.5z"/>
<path class="st88" d="M164,135.56c0,0-0.39,4.22,0.07,5.16c0.46,0.95,3.39,6.84,6.48,6.47c2.57-0.3,8.87-3.95,11.05-6.12  c-2.68,1.8-9.82,6.38-11.92,5.68c-2.6-0.87-5.53-6.42-5.47-6.97c0.06-0.55,0.23-4.15,0.23-4.15s-0.52-1.14-1.12-2.53  C163.49,133.89,163.72,134.7,164,135.56z"/>
<path class="st88" d="M181.65,139.78c1.99-0.15,3.44-1.29,4.21-2.25c0.17-0.22,0.31-0.42,0.42-0.6c0.57-1,0.73-4.45-0.73-5.25  c-1.03-0.56-1.77,0.25-2.13,0.79v0c-0.15,0.23-0.23,0.41-0.23,0.41L181.65,139.78z"/>
<path class="st85" d="M181.65,139.78c1.99-0.15,3.44-1.29,4.21-2.25c0.07-0.1,0.13-0.19,0.18-0.28c0.57-1,0.73-4.45-0.73-5.25  c-0.83-0.46-1.48-0.01-1.88,0.47v0c-0.15,0.23-0.23,0.41-0.23,0.41L181.65,139.78z"/>
<g>
	<path class="st89" d="M182.62,138.45c0,0,0.02-0.01,0.07-0.04c0.04-0.02,0.11-0.06,0.18-0.11c0.15-0.1,0.37-0.26,0.57-0.49   c0.2-0.23,0.38-0.55,0.47-0.92c0.08-0.37,0.06-0.8-0.14-1.22c-0.02-0.05-0.05-0.1-0.08-0.15l-0.02-0.04c-0.01-0.01,0,0,0,0l0,0l0,0   l0,0c0,0,0,0,0-0.01l0.02-0.03l0.04-0.07c0.03-0.04,0.05-0.09,0.08-0.13c0.11-0.17,0.23-0.33,0.35-0.48   c0.12-0.15,0.24-0.28,0.37-0.41c0.12-0.12,0.24-0.24,0.36-0.33c0.12-0.09,0.25-0.14,0.37-0.16c0.12-0.01,0.24,0.01,0.32,0.05   c0.08,0.04,0.12,0.09,0.14,0.12c0.02,0.04,0.02,0.06,0.02,0.06c0,0,0.01-0.02,0-0.06c-0.01-0.04-0.04-0.1-0.12-0.16   c-0.08-0.05-0.2-0.11-0.36-0.11c-0.16,0-0.34,0.05-0.49,0.14c-0.16,0.09-0.3,0.19-0.45,0.31c-0.15,0.12-0.3,0.25-0.44,0.4   c-0.14,0.15-0.28,0.31-0.41,0.49c-0.03,0.04-0.06,0.09-0.09,0.14l-0.04,0.07l-0.06,0.1l-0.04,0.07c0.01,0.02,0.03,0.05,0.04,0.07   l0.06,0.1c0.03,0.04,0.05,0.09,0.07,0.13c0.18,0.36,0.22,0.74,0.19,1.08c-0.04,0.34-0.16,0.64-0.3,0.88   c-0.14,0.24-0.31,0.42-0.43,0.53c-0.06,0.06-0.12,0.1-0.15,0.13C182.64,138.44,182.62,138.45,182.62,138.45z"/>
</g>
<path class="st86" d="M179.7,135.78c0.03-0.17,0.09-0.42,0.17-0.72c0.09-0.3,0.21-0.66,0.39-1.04c0.19-0.38,0.44-0.79,0.8-1.16  c0.36-0.37,0.77-0.64,1.16-0.84c0.39-0.2,0.76-0.32,1.07-0.41c0.14-0.04,0.26-0.07,0.37-0.09c0.14-0.12,0.22-0.19,0.22-0.19  s-0.03,0.06-0.07,0.16c0.09-0.02,0.16-0.03,0.23-0.04c0.18-0.03,0.28-0.04,0.28-0.04s-0.25,0.16-0.65,0.41  c-0.09,0.19-0.19,0.44-0.32,0.72c-0.32,0.74-0.74,1.74-0.93,2.85c-0.19,1.11-0.15,2.2-0.15,3.01c0,0.4,0.01,0.73,0.01,0.96  c0,0.23-0.01,0.36-0.01,0.36s-0.05-0.12-0.15-0.33c-0.09-0.21-0.22-0.52-0.35-0.91c-0.13-0.39-0.27-0.87-0.35-1.42  c-0.08-0.55-0.11-1.18,0-1.83c0.11-0.66,0.36-1.25,0.63-1.74c0.26-0.46,0.55-0.84,0.82-1.15c-0.41,0.28-0.85,0.62-1.25,1.03  c-0.61,0.62-1.06,1.33-1.4,1.84c-0.17,0.26-0.32,0.47-0.41,0.61c-0.1,0.14-0.16,0.22-0.16,0.22S179.67,135.96,179.7,135.78z"/>
<path class="st87" d="M171.96,130.47c0,0-3.73-4.16-5.26-2.68c-0.89,0.86-0.27,1.45-0.27,1.45L171.96,130.47z"/>
<path class="st90" d="M166.46,132.38c0.22-0.24,1.03-0.09,1.32-0.09c0.73,0,1.32,0.91,1.32,2.04c0,1.13-0.59,2.04-1.32,2.04  c-0.73,0-1.32-0.92-1.32-2.04c0-0.35,0.06-0.68,0.16-0.97"/>
<path class="st89" d="M165.12,141.08c-0.2-0.18-0.43-0.32-0.64-0.49c-0.26-0.21-0.5-0.44-0.71-0.7c1.08-0.72,1.07-1.81,1.02-3.05  c-0.02-0.56-0.18-1.11-0.47-1.6c-0.15-0.26-0.33-0.5-0.54-0.71c-0.11-0.11-0.22-0.21-0.34-0.31c-0.12-0.09-0.24-0.15-0.37-0.2  c0.07,0.07,0.11,0.16,0.17,0.24c0.16,0.2,0.32,0.38,0.46,0.6c0.14,0.21,0.25,0.44,0.35,0.67c0.19,0.47,0.31,0.96,0.32,1.47  c0.02,0.49-0.06,0.99-0.24,1.45c-0.21,0.52-0.59,1.04-1.08,1.35c0,0,0.74,0.83,0.81,0.9c0.19,0.17,0.39,0.33,0.61,0.47  c0.22,0.13,0.46,0.29,0.73,0.28c0.08,0,0.17-0.02,0.23-0.07c-0.05-0.03-0.09-0.06-0.13-0.1c-0.02-0.02-0.03-0.03-0.05-0.05  C165.22,141.17,165.17,141.13,165.12,141.08z"/>
<path class="st91" d="M166.43,144.64c2.17-0.49,3.07-3.2,3.07-3.2"/>
<path class="st2" d="M166.5,144.09c2.35-0.57,2.81-2.54,2.81-2.54"/>
<path class="st4" d="M191.83,201.71c-0.11-1.09-0.99-2.95-2-4.77c-1.44-2.6-3.13-5.1-3.13-5.1l-19.28-1.43  c-0.85,0.98-2.4,3.15-3.21,4.27c-2.39,3.29-4.34,6.64-4.34,6.64"/>
<path class="st4" d="M164.72,195.93c2.04-0.12,4.09-0.34,6.13-0.44c6.67-0.33,13.8,0.73,19.48,4.12c0.74,0.44,1.52,1.07,2.33,1.71  c-1.57-6.19-3.41-12.15-3.41-12.15l-21.78-0.87C166.54,190.62,165.6,193.27,164.72,195.93z"/>
<ellipse class="st2" cx="166.74" cy="133.32" rx="0.59" ry="0.34"/>
<g>
	<g>
		<path class="st85" d="M140.46,182.3c-0.05,0.08-0.09,0.17-0.13,0.25c-0.05,0.06-0.1,0.11-0.15,0.17c-0.13,0.15-0.26,0.3-0.4,0.45    c0,0,0,0-0.01,0c-0.89,0.94-1.91,1.72-2.88,2.33c-1.49,0.93-2.85,1.44-3.43,1.43c-1.11-0.01-5.71,1.14-5.63,0.75    c0.08-0.39,0.54-1.13,1.33-1.3c0.79-0.17,3.73-0.88,3.99-1.64c0.25-0.76-6.08-0.91-7.07-0.47c-0.88,0.39-5.08,1.05-5.29,0.67    c-0.03-0.05,0.01-0.11,0.12-0.19c1.01-0.75,8.6-3.68,8.6-3.68s3.35-0.23,6.18-0.57c0,0,0,0,0,0c0.29-0.04,0.58-0.07,0.86-0.11    c0.12-0.02,0.24-0.03,0.36-0.05c0.14-0.02,0.28-0.04,0.41-0.06c0.56-0.08,1.04-0.17,1.42-0.26l1.25,1.65L140.46,182.3z"/>
	</g>
</g>
<path class="st0" d="M137.66,183.71l0.15-3.85l0.06-1.45c0,0,28.92-5.07,32.23-4.42c0,0,0.15-5.41,0.72-10.18  c0,0-0.03-6.48,0.62-9.48l8.39,1.44l3.85,7.12c-1.66,7.71-3.79,15.87-5.81,18.44c-4.16,5.31-40.32,4.58-40.32,4.58L137.66,183.71z"/>
<g>
	<g>
		<path class="st4" d="M137.72,179.42l0.06-1.45c0,0,29.01-4.63,32.32-3.97c0,0-1.11-12.72,1.34-19.67c0,0-0.07,7.18-0.15,10.55    l-0.23,9.83c0.29,0.08,0.55,0.18,0.74,0.23c0.92,0.29,1.81,0.69,2.64,1.18c0.14,0.09,0.31,0.22,0.26,0.39    c-0.06,0.19-0.32,0.2-0.52,0.17c-1.11-0.18-2.22-0.36-3.32-0.54c0.17,0.85,0.32,1.79-0.13,2.55c-0.67-0.91-1.08-2-1.18-3.14    C164.32,175.59,142.95,179.19,137.72,179.42z"/>
	</g>
</g>
<path class="st4" d="M182.96,163.23c-2.22,8.65-4.93,18.05-6.46,19.06c-2.39,1.58-31.4,1.51-38.89,1.77l-0.1,2.2  c0,0,36.05,1.79,40.21-3.52c2.02-2.58,4.15-10.73,5.81-18.44L182.96,163.23z"/>
<path class="st4" d="M130.5,208.53c0.4-1.38-0.76-4.7,2.57-7.15c6.16-4.54,22.4-2.66,22.8-2.47l35.42,0.16l0,0l0,0  c0.55,2.23,1.22,6.37-0.9,9.44c-1.91,2.76-5.4,3.64-12.18,3.78c-17.66,0.34-23.17-0.9-28.88-0.94c-6.56-0.05-7.34-1.23-8.24,6.07  c-1.31,10.63,0.57,19.44-1.1,21.15c-1.62,1.66,0.67,1.32-10.59,0.34"/>
<path class="st85" d="M145.28,241.65c12.53-3.8,10.19-14.65,10.19-14.65l-4.49,2.82L145.28,241.65z"/>
<path class="st0" d="M153.93,226.44c0.62-0.14,0.97,0.53,3.04,2.6c2.1,2.09,2.38,2.04,2.5,2.61c0.31,1.46-1.37,2.63-5.24,6.59  c-4.17,4.27-4.94,5.7-7.12,6.03c-0.36,0.05-2.44,0.37-3.71-0.94c-1.07-1.09-1.18-2.9-0.59-4.23c0.71-1.59,3.25-1.58,5.64-2.74  c2.58-1.25,2.8-2.05,3.28-3.09c0.65-1.42-0.46-3.43-0.41-3.45c0.02-0.01,0.09,0.47,0.28,0.49  C152.14,230.38,152.6,226.75,153.93,226.44z"/>
<path class="st4" d="M133.25,208.47l16.13,24.23l6.43-4.4c0,0-9.48-21.13-13.68-27.82"/>
<polygon class="st92" points="199.32,245.65 144.98,245.65 172.15,216.22 172.15,216.22 "/>
<path class="st93" d="M191.72,213.39c-0.95,1.1-2.13,1.54-3.61,1.54c-12.88-0.03-25.75-0.02-38.63-0.03c-0.76,0-1.59,0.16-2.08-0.7  c-0.46-0.8-0.04-1.35,0.49-1.88c0.51-0.55,1.19-0.44,1.83-0.44c9.25-0.01,18.49-0.09,27.74,0.04c2.86,0.04,5.72,0.12,8.58,0.14  c0.64,0.01,1.3,0.18,1.91-0.2c1.22-0.62,1.47-1.7,1.46-2.94c-0.02-2.99,0.09-5.98-0.02-8.96c-0.36-9.12,1.59-17.64,6.27-25.51  c0.85-1.75,2.06-3.27,3.13-4.88c0.23-0.37,0.47-0.73,0.7-1.1c0.84-1.09,1.77-1.81,3.12-0.75c0.8,1.28-0.04,2.26-0.68,3.2  c-1.55,2.25-3.07,4.51-4.4,6.9c-2.52,4.55-3.94,9.44-4.62,14.56c-0.81,6.09-0.24,12.21-0.38,18.31  C192.51,211.68,192.46,212.62,191.72,213.39z"/>
<rect x="70.61" y="192.94" class="st92" width="92.85" height="52.78"/>
<path class="st4" d="M103.39,187.29c0.67,0.77,1.49,1.08,2.53,1.08c9.03-0.02,18.06-0.01,27.1-0.02c0.53,0,1.11,0.11,1.46-0.49  c0.32-0.56,0.03-0.95-0.34-1.32c-0.36-0.38-0.84-0.31-1.29-0.31c-6.49-0.01-12.97-0.06-19.46,0.03c-2,0.03-4.01,0.08-6.02,0.1  c-0.45,0-0.92,0.13-1.34-0.14c-0.85-0.43-1.03-1.19-1.02-2.06c0.01-2.1-0.07-4.19,0.02-6.29c0.25-6.39-1.12-12.37-4.4-17.89  c-0.6-1.23-1.45-2.29-2.19-3.43c-0.16-0.26-0.33-0.51-0.49-0.77c-0.59-0.76-1.24-1.27-2.19-0.52c-0.56,0.9,0.03,1.59,0.48,2.24  c1.09,1.58,2.15,3.16,3.08,4.84c1.77,3.19,2.76,6.62,3.24,10.21c0.57,4.27,0.17,8.56,0.27,12.85  C102.84,186.09,102.88,186.76,103.39,187.29z"/>
<path class="st92" d="M162.37,192.68H71.1c-1.12,0-2.02-0.91-2.02-2.02v0c0-1.12,0.91-2.02,2.02-2.02h91.27  c1.12,0,2.02,0.91,2.02,2.02v0C164.39,191.77,163.49,192.68,162.37,192.68z"/>
<path class="st93" d="M125.44,97.24H81.19c-8.19,0-14.83-6.64-14.83-14.83V69.1c0-8.19,6.64-14.83,14.83-14.83h44.25  c8.19,0,14.83,6.64,14.83,14.83v13.32C140.27,90.6,133.63,97.24,125.44,97.24z"/>
<polyline class="st93" points="117.87,89.18 111.33,120.33 88.77,92.94 "/>
<g>
	<path class="st4" d="M107.93,66.92c-2.35,8.02-5.25,15.82-8.91,23.33c-0.49-0.16-0.97-0.32-1.46-0.48   c3.15-8.66,6.29-17.31,9.44-25.97C109.09,64.32,108.16,65.72,107.93,66.92z"/>
	<path class="st4" d="M123.28,77.5c-3.65-2.47-8.34-2.43-11.34-5.54c0.16-0.38,0.31-0.76,0.47-1.15c4.37,1.77,8.82,3.39,13.09,5.37   c1.76,0.82,1.32,2.25-0.42,2.91c-4.18,1.59-8.4,3.08-12.8,4.16C115.11,79.88,119.64,79.84,123.28,77.5z"/>
	<path class="st4" d="M83.77,76.68c3.79,2.61,8.49,2.58,12.4,6.6c-5.93-1.11-10.16-3.5-14.64-5.12c-1.41-0.51-1.39-2.09-0.43-2.46   c4.28-1.65,8.33-4.07,12.89-4.92c0.16,0.37,0.32,0.75,0.48,1.12C91.04,73.43,87.62,74.96,83.77,76.68z"/>
</g>
</svg>