<?xml version="1.0" encoding="utf-8"?>
<!-- Generator: Adobe Illustrator 26.2.1, SVG Export Plug-In . SVG Version: 6.00 Build 0)  -->
<svg version="1.1" id="Laag_1" xmlns="http://www.w3.org/2000/svg" xmlns:xlink="http://www.w3.org/1999/xlink" x="0px" y="0px"
	 viewBox="0 0 379.81 425" style="enable-background:new 0 0 379.81 425;" xml:space="preserve">
<style type="text/css">
	.st0{fill:#F9BD8F;}
	.st1{fill:#4A4797;}
	.st2{fill:none;stroke:#1F2123;stroke-width:2;stroke-miterlimit:10;}
	.st3{fill:#1F2123;}
	.st4{fill:#DED0E8;}
	.st5{fill:#1A1835;}
	.st6{fill:#C2A167;}
	.st7{fill:#CDB384;}
	.st8{fill:#DAC5A2;}
	.st9{fill:#EF7C71;}
	.st10{fill:#161818;}
	.st11{fill:#F39889;}
	.st12{fill:#EB5D6A;}
	.st13{fill:#FFFFFF;}
	.st14{fill:#FEEFE7;}
	.st15{fill:#FDDABA;}
</style>
<path class="st0" d="M214.5,321.32c12.19,4.79,17.08-5.18,17.08-5.18l-5.27-0.57L214.5,321.32z"/>
<path class="st1" d="M230.71,314.76c0.57,0.27,0.43,1.01,0.78,3.92c0.35,2.94,0.61,3.08,0.35,3.6c-0.67,1.34-2.7,1.21-8.2,1.92
	c-5.92,0.76-7.41,1.41-9.32,0.32c-0.32-0.18-2.14-1.22-2.33-3.04c-0.16-1.52,0.88-3.01,2.16-3.68c1.54-0.81,3.53,0.78,6.13,1.35
	c2.8,0.62,3.47,0.13,4.49-0.39c1.39-0.71,1.76-2.98,1.81-2.96c0.02,0.01-0.22,0.43-0.09,0.56
	C226.86,316.74,229.48,314.18,230.71,314.76z"/>
<g>
	<circle class="st2" cx="181.75" cy="151.76" r="34.05"/>
	<circle class="st2" cx="181.75" cy="151.76" r="53.39"/>
	<circle class="st2" cx="181.75" cy="151.76" r="68.4"/>
	<circle class="st2" cx="181.75" cy="151.76" r="16.57"/>
</g>
<polygon class="st1" points="208.53,111.31 205.4,99.11 191.01,122.27 194.14,134.47 206.47,131.87 220.86,108.71 "/>
<g>
	<polygon class="st3" points="199.61,129.04 180.03,154.69 197.15,127.34 199.61,129.04 	"/>
</g>
<g>
	<ellipse class="st4" cx="82.55" cy="120.45" rx="38.17" ry="22.18"/>
	<ellipse class="st4" cx="100.66" cy="96.47" rx="32.86" ry="19.26"/>
	<ellipse class="st4" cx="148.26" cy="120.45" rx="34.05" ry="24.16"/>
</g>
<g>
	<ellipse class="st4" cx="215.89" cy="226.64" rx="24.48" ry="14.22"/>
	<ellipse class="st4" cx="204.27" cy="211.27" rx="21.07" ry="12.35"/>
	<ellipse class="st4" cx="173.75" cy="226.64" rx="21.83" ry="15.49"/>
</g>
<g>
	<g>
		<path class="st0" d="M196.83,172.97c-0.03-0.09-0.07-0.18-0.1-0.27c-0.04-0.06-0.08-0.13-0.12-0.19c-0.11-0.17-0.22-0.34-0.34-0.5
			c0,0,0,0,0-0.01c-0.75-1.06-1.65-1.98-2.52-2.71c-1.34-1.13-2.62-1.83-3.2-1.9c-1.1-0.14-5.49-1.93-5.47-1.53
			c0.02,0.4,0.38,1.2,1.13,1.48c0.75,0.28,3.57,1.4,3.72,2.19c0.14,0.79-6.14,0.05-7.06-0.53c-0.82-0.51-4.88-1.76-5.15-1.41
			c-0.03,0.04-0.01,0.11,0.09,0.21c0.89,0.88,8,4.85,8,4.85s3.28,0.7,6.04,1.43c0,0,0,0,0,0c0.28,0.08,0.56,0.15,0.83,0.22
			c0.12,0.03,0.23,0.06,0.35,0.1c0.14,0.04,0.27,0.08,0.4,0.12c0.54,0.16,1.01,0.31,1.37,0.45l1.47-1.46L196.83,172.97z"/>
	</g>
</g>
<path class="st1" d="M194.01,175.75l2.52-2.91l0.96-1.09c0,0,19.06,10.87,21.24,13.45c0,0,3.5-4.13,6.93-7.5
	c0,0,4.03-5.07,6.41-7.01l5.65,6.37l-1.44,7.96c-6.12,4.98-12.88,10.01-16.07,10.76c-6.57,1.55-27.65-18.37-27.65-18.37
	L194.01,175.75z"/>
<path class="st5" d="M235.49,184.83c-7.14,5.36-15.14,11-16.96,10.83c-2.85-0.27-19.52-14.43-25.52-18.91l-1.45,1.65
	c0,0,21.08,19.92,27.65,18.37c3.19-0.75,9.95-5.78,16.07-10.76L235.49,184.83z"/>
<g>
	<path class="st1" d="M264.44,211.88c-0.25-0.67-0.43-1.19-0.52-1.48c-0.56-1.93-1.67-28.75-2.33-33.57
		c-0.66-4.82-8.22-8.76-8.22-8.76l-0.34,13.7l-5.06,22.15l4.53,7.96H264.44z"/>
	<path class="st1" d="M261.5,211.88c-1.25-2.87-2.23-4.96-2.23-4.96l-0.46-15.92c1.14-3.27,0.24-9.62-0.31-12.72
		c0.17,3.75-0.88,11.65-0.88,11.65v15.59l-2.66,6.37H261.5z"/>
</g>
<path class="st0" d="M241.28,319.12c0.35,1.31,3.08,3.22,4.34,4.04c0.37,0.24,0.87,0.22,1.21-0.06c0.7-0.56,1.6-1.11,3.02-2.88
	c0.28-0.35,0.51-0.65,0.61-1.1c0.12-0.58-0.05-1.06-0.23-1.57c-0.18-0.53-0.21-0.59-0.49-1.43c-0.03-0.1-0.16-0.48-0.33-1
	c0,0,0,0,0,0c-1.09-2.59-2.09-4.98-2.09-4.98l-4.54,0.18c0,0-1.05,3.83-1.44,6.53C241.21,317.83,241.16,318.67,241.28,319.12z"/>
<path class="st1" d="M229.99,206.29c0,0-0.06-11.45-0.51-13.52c-0.45-2.07-2.97-17.78,2.68-22.36c2.65-2.15,4.7-3.2,6.14-3.7
	c0.34-0.12,0.64-0.21,0.91-0.27v0c0.68-0.17,1.14-0.19,1.37-0.19c0,0,0.01,0,0.01,0c0.05,0,0.08,0,0.11,0c0.01,0,0.02,0,0.02,0
	c0.02,0,0.03,0,0.03,0h7.53c0,0,1.52,0.34,3.22,0.92c1.79,0.61,6.57,3.33,7.13,4.39c0.39,0.76-0.23,1.69-1.39,7.51
	c-2,10-6.58,25.25-6.5,28.07C250.72,207.17,239.27,213.81,229.99,206.29z"/>
<g>
	<path class="st5" d="M232.02,187.89c0,0,0.28-0.01,0.77-0.04c0.49-0.03,1.21-0.07,2.09-0.13c1.75-0.08,4.14-0.21,6.56,0.41
		c0.62,0.16,1.24,0.34,1.86,0.5c0.62,0.16,1.25,0.29,1.85,0.38c1.2,0.17,2.28,0.17,3.19,0.1c0.46-0.04,0.88-0.11,1.24-0.22
		c0.36-0.11,0.65-0.27,0.85-0.42c0.21-0.16,0.33-0.31,0.41-0.42c0.07-0.11,0.1-0.17,0.1-0.17s-0.05,0.04-0.15,0.13
		c-0.1,0.07-0.26,0.18-0.48,0.26c-0.44,0.17-1.12,0.22-1.95,0.1c-0.85-0.11-1.86-0.3-2.94-0.58c-0.54-0.14-1.1-0.31-1.68-0.51
		c-0.59-0.19-1.21-0.41-1.9-0.58c-1.38-0.35-2.77-0.4-3.97-0.29c-1.21,0.11-2.25,0.35-3.11,0.58c-0.86,0.24-1.54,0.47-2.01,0.63
		C232.28,187.79,232.02,187.89,232.02,187.89z"/>
</g>
<path class="st6" d="M249.32,159.39c0.52,1.2,1.25,2.3,2.08,3.32c1.85,2.26,4.44,4.18,7.41,4.37c-1.49-0.53-2.84-1.42-3.92-2.54
	c0.18,0.11,0.36,0.23,0.55,0.33c2.04,1.11,4.57,1.54,6.85,1.06c-0.94-0.98-1.55-2.2-1.91-3.49c-0.26-0.91-0.39-1.86-0.42-2.8
	c-0.08-2.28,0.36-4.53,0.69-6.79c0.53-3.65,0.89-7.43,0.76-11.13c-0.1-2.96-1.1-6.18-3.43-8.23c-1.21-1.06-2.94-1.53-4.54-1.22
	c-1.3,0.25-2.49,1.01-3.25,2.05c-0.18,0.24-0.33,0.49-0.46,0.75c-0.19,0.4-0.3,0.72-0.04,1.08c0.26,0.37,0.61,0.66,0.93,0.98
	c0.88,0.9,1.4,2.02,1.67,3.23c-0.14,0.11-0.28,0.23-0.41,0.36c-0.83,0.8-1.38,1.83-1.82,2.88c-1.2,2.81-1.75,5.85-1.83,8.89
	C248.17,154.84,248.39,157.23,249.32,159.39z"/>
<path class="st7" d="M250.2,134.32c0.13,0.48,0.34,0.94,0.63,1.34c1.41-0.06,2.69,0.93,3.32,2.15c0.63,1.21,0.74,2.62,0.75,3.98
	c0.02,2.04-0.14,4.08-0.47,6.1c-0.35,2.13-0.89,4.25-0.86,6.4c0.03,2.15,0.74,4.42,2.46,5.8c-0.07-1.27,0.15-2.56,0.65-3.73
	c0.18,2.43,1.63,4.71,3.71,6.07c-0.26-0.91-0.39-1.86-0.42-2.8c-0.06-1.66,0.16-3.31,0.41-4.96c0.09-0.61,0.19-1.22,0.28-1.83
	c0.53-3.65,0.89-7.43,0.76-11.13c-0.1-2.96-1.1-6.18-3.43-8.23c-1.21-1.06-2.94-1.53-4.54-1.22c-0.44,0.08-0.88,0.23-1.28,0.43
	C251.39,133.07,250.7,133.64,250.2,134.32z"/>
<path class="st8" d="M252.17,132.7c1.41,0.94,2.83,1.87,3.54,3.34c0.32,0.66,0.46,1.38,0.6,2.1c0.19,0.97,0.38,1.95,0.42,2.94
	c0.07,1.73-0.32,3.44-0.44,5.17c-0.14,2.04,0.13,4.1,0.77,6.05c0.26-0.93,0.65-1.82,1.15-2.65c0.09,1.86,1.02,3.51,2.17,5.03
	c0.09-0.61,0.19-1.22,0.28-1.83c0.53-3.65,0.89-7.43,0.76-11.13c-0.1-2.96-1.1-6.18-3.43-8.23c-1.21-1.06-2.94-1.53-4.54-1.22
	C253.01,132.36,252.57,132.5,252.17,132.7z"/>
<path class="st1" d="M246.97,136.57c0,1.63,1.36,2.94,3.05,2.94c1.68,0,3.05-1.32,3.05-2.94c0-1.63-1.36-2.94-3.05-2.94
	C248.34,133.63,246.97,134.94,246.97,136.57z"/>
<path class="st0" d="M238.8,173.28l6.77-7.3c-0.01-1.08-0.11-1.49-0.21-4.17c-0.11-2.98-0.22-5.78-0.22-5.78l-8.71,3.33
	c0.97,2.11,1.41,4.5,1.56,6.79C238.29,170.96,238.8,173.28,238.8,173.28z"/>
<path class="st0" d="M227.29,149.35c0.18,0.78,0.4,1.6,0.68,2.45c0,0-0.39,4.22,0.07,5.16c0.46,0.95,3.39,6.84,6.48,6.47
	c2.57-0.3,8.87-3.95,11.05-6.12c0.44-0.43,0.71-0.8,0.76-1.08c0.3-1.67,1.33-9.05,1.43-9.67c0.26-1.67,0.99-14.34-14.86-10.82
	c-2.85,0.64-5.11,2.77-5.75,5.54C226.68,143.28,226.52,145.95,227.29,149.35z"/>
<path class="st6" d="M224.8,141.48c0.01,0.67,0.2,1.33,0.42,1.97c0.44,1.29,1.06,2.58,2.16,3.42c-0.13-1.71-0.05-3.43,0.24-5.12
	c3.78,3.98,11.69,5.34,12.01,5.4c-1.5-0.44-1.95-3.34-1.95-3.34c1.81,4.07,9.72,4.91,9.72,4.91c1.89-1.49,3.21,1.33,3.21,1.33
	c0.64-1.15,1.17-2.18,1.59-3.14c0.11-0.25,0.21-0.5,0.3-0.74c0.25-0.65,0.43-1.31,0.54-1.97c1.05-6.11-3.68-12.11-9.77-13.82
	c-0.01,0-0.01,0-0.02,0c-5.76-1.61-12.57-0.14-15.78,2.94c-0.58,0.56-1.05,1.17-1.37,1.83c-0.05,0.1-0.09,0.2-0.13,0.3
	c-0.01,0.03-0.02,0.06-0.04,0.09c-0.22,0.57-0.33,1.18-0.31,1.8c0.01,0.38,0.06,0.75,0.14,1.11
	C225.21,139.34,224.79,140.44,224.8,141.48z"/>
<path class="st6" d="M225.99,135.44c0.34,0.18,0.71,0.32,1.08,0.42c0.76,0.19,1.56,0.21,2.33,0.41c0.92,0.24,1.77,0.75,2.4,1.44
	c1.12,1.23,1.61,3.05,3.12,3.79c1.04,0.51,2.3,0.35,3.43,0.06c1.13-0.29,2.25-0.72,3.42-0.68c1.84,0.05,3.46,1.22,4.61,2.61
	c0.34,0.41,0.66,0.85,1.11,1.15c0.63,0.41,1.43,0.49,2.19,0.45c1.18-0.06,2.34-0.37,3.38-0.9c0.34-1.99,0.07-3.97-0.66-5.8
	c-1.51-3.77-5-6.87-9.11-8.02c-0.01,0-0.01,0-0.02,0c-3.76-1.05-7.96-0.79-11.32,0.38c-1.79,0.62-3.35,1.49-4.46,2.56
	c-0.58,0.56-1.05,1.17-1.37,1.83C226.07,135.23,226.03,135.33,225.99,135.44z"/>
<path class="st6" d="M231.94,130.75c1.86,1.47,2.81,4.04,5.06,4.85c1.31,0.47,2.75,0.22,4.14,0.07c1.38-0.15,2.91-0.16,4.01,0.67
	c0.57,0.44,0.96,1.06,1.5,1.53c1.14,0.99,2.84,1.2,4.35,0.91c0.47-0.09,0.93-0.22,1.38-0.39c-1.51-3.77-5-6.87-9.11-8.02
	c-0.01,0-0.01,0-0.02,0C239.5,129.32,235.3,129.58,231.94,130.75z"/>
<path class="st8" d="M227.97,151.8c0,0-0.39,4.22,0.07,5.16c0.46,0.95,3.39,6.84,6.48,6.47c2.57-0.3,8.87-3.95,11.05-6.12
	c-2.68,1.8-9.82,6.38-11.92,5.68c-2.6-0.87-5.53-6.42-5.47-6.97c0.06-0.55,0.23-4.15,0.23-4.15s-0.52-1.14-1.12-2.53
	C227.47,150.13,227.69,150.95,227.97,151.8z"/>
<path class="st8" d="M245.62,156.02c1.99-0.15,3.44-1.29,4.21-2.25c0.17-0.22,0.31-0.42,0.42-0.6c0.57-1,0.73-4.45-0.73-5.25
	c-1.03-0.56-1.77,0.25-2.13,0.79v0c-0.15,0.23-0.23,0.41-0.23,0.41L245.62,156.02z"/>
<path class="st0" d="M245.62,156.02c1.99-0.15,3.44-1.29,4.21-2.25c0.07-0.1,0.13-0.19,0.18-0.28c0.57-1,0.73-4.45-0.73-5.25
	c-0.83-0.46-1.48-0.01-1.88,0.47v0c-0.15,0.23-0.23,0.41-0.23,0.41L245.62,156.02z"/>
<g>
	<path class="st9" d="M246.6,154.69c0,0,0.02-0.01,0.07-0.04c0.04-0.02,0.11-0.06,0.19-0.11c0.15-0.1,0.37-0.26,0.57-0.49
		c0.2-0.23,0.38-0.55,0.47-0.92c0.08-0.37,0.06-0.8-0.14-1.22c-0.02-0.05-0.05-0.1-0.08-0.15l-0.02-0.04c-0.01-0.01,0,0,0,0l0,0l0,0
		l0,0c0,0,0,0,0-0.01l0.02-0.03l0.04-0.07c0.03-0.04,0.05-0.09,0.08-0.13c0.11-0.17,0.23-0.33,0.35-0.48
		c0.12-0.15,0.24-0.28,0.37-0.41c0.12-0.12,0.24-0.24,0.36-0.33c0.12-0.09,0.25-0.14,0.37-0.16c0.12-0.01,0.24,0.01,0.32,0.05
		c0.08,0.04,0.12,0.09,0.14,0.12c0.02,0.04,0.02,0.06,0.02,0.06c0,0,0.01-0.02,0-0.06c-0.01-0.04-0.04-0.1-0.12-0.16
		c-0.08-0.05-0.2-0.11-0.36-0.11c-0.16,0-0.34,0.05-0.49,0.14c-0.16,0.09-0.3,0.19-0.45,0.31c-0.15,0.12-0.3,0.25-0.44,0.4
		c-0.14,0.15-0.28,0.31-0.41,0.49c-0.03,0.04-0.06,0.09-0.09,0.14l-0.04,0.07l-0.06,0.1l-0.04,0.07c0.01,0.02,0.03,0.05,0.04,0.07
		l0.06,0.1c0.03,0.04,0.05,0.09,0.07,0.13c0.18,0.36,0.22,0.74,0.18,1.08c-0.04,0.34-0.16,0.64-0.3,0.88
		c-0.14,0.24-0.31,0.42-0.43,0.53c-0.06,0.06-0.12,0.1-0.15,0.13C246.62,154.68,246.6,154.69,246.6,154.69z"/>
</g>
<path class="st6" d="M243.68,152.03c0.03-0.17,0.09-0.42,0.17-0.72c0.09-0.3,0.21-0.66,0.39-1.04c0.19-0.38,0.44-0.79,0.8-1.16
	c0.36-0.37,0.77-0.64,1.16-0.84c0.39-0.2,0.76-0.32,1.07-0.41c0.14-0.04,0.26-0.07,0.37-0.09c0.14-0.12,0.22-0.19,0.22-0.19
	s-0.03,0.06-0.07,0.16c0.09-0.02,0.16-0.03,0.23-0.04c0.18-0.03,0.28-0.04,0.28-0.04s-0.25,0.16-0.65,0.41
	c-0.09,0.19-0.19,0.44-0.32,0.72c-0.32,0.74-0.74,1.74-0.93,2.85c-0.19,1.11-0.15,2.2-0.15,3.01c0,0.4,0.01,0.73,0.01,0.96
	c0,0.23-0.01,0.36-0.01,0.36s-0.05-0.12-0.15-0.33c-0.09-0.21-0.22-0.52-0.35-0.91c-0.13-0.39-0.27-0.87-0.35-1.42
	c-0.08-0.55-0.11-1.18,0-1.83c0.11-0.66,0.36-1.25,0.63-1.74c0.26-0.46,0.55-0.84,0.82-1.15c-0.41,0.28-0.85,0.62-1.25,1.03
	c-0.61,0.62-1.06,1.33-1.4,1.84c-0.17,0.26-0.32,0.47-0.41,0.61c-0.1,0.14-0.16,0.22-0.16,0.22S243.65,152.2,243.68,152.03z"/>
<path class="st7" d="M225.85,146.32c0,0,2.02-2.62,3.15-1.58c1.13,1.04,0.62,1.14,0.62,1.14L225.85,146.32z"/>
<path class="st7" d="M241.87,146.72c0,0-3.73-4.16-5.26-2.68c-0.89,0.86-0.27,1.45-0.27,1.45L241.87,146.72z"/>
<path class="st10" d="M235.84,148.69c0.22-0.24,1.03-0.09,1.32-0.09c0.73,0,1.32,0.91,1.32,2.04c0,1.13-0.59,2.04-1.32,2.04
	c-0.73,0-1.32-0.92-1.32-2.04c0-0.35,0.06-0.68,0.16-0.97"/>
<path class="st10" d="M228.82,148.89c0.15-0.14,0.73-0.11,0.92-0.11c0.55,0,0.99,0.69,0.99,1.54c0,0.85-0.44,1.54-0.99,1.54
	c-0.55,0-0.99-0.69-0.99-1.54c0-0.32,0.06-0.62,0.17-0.87"/>
<path class="st11" d="M233.79,154.51c0.32-0.11,0.65-0.28,0.99-0.25c-0.34,0.76-1,1.37-1.8,1.67c-0.06,0.02-0.12,0.05-0.19,0.04
	c-0.08,0-0.15-0.04-0.22-0.08c-0.44-0.25-0.83-0.58-1.13-0.98c-0.06-0.08-0.12-0.16-0.15-0.26c-0.08-0.32,0.15-0.25,0.35-0.18
	c0.23,0.09,0.47,0.15,0.72,0.18C232.83,154.72,233.33,154.67,233.79,154.51z"/>
<path class="st9" d="M232.91,155.75c-0.2-0.18-0.43-0.32-0.64-0.49c-0.26-0.21-0.5-0.44-0.71-0.7c1.08-0.72,1.07-1.81,1.02-3.05
	c-0.02-0.56-0.18-1.11-0.46-1.6c-0.15-0.26-0.33-0.5-0.54-0.71c-0.11-0.11-0.22-0.21-0.34-0.31c-0.12-0.09-0.24-0.15-0.37-0.2
	c0.07,0.07,0.11,0.16,0.17,0.24c0.16,0.2,0.32,0.38,0.46,0.6c0.14,0.21,0.25,0.44,0.35,0.67c0.19,0.47,0.31,0.96,0.32,1.47
	c0.02,0.49-0.06,0.99-0.24,1.45c-0.21,0.52-0.59,1.04-1.08,1.35c0,0,0.74,0.83,0.81,0.9c0.19,0.17,0.39,0.33,0.61,0.47
	c0.22,0.13,0.47,0.29,0.73,0.28c0.08,0,0.17-0.02,0.23-0.07c-0.05-0.03-0.09-0.06-0.13-0.1c-0.02-0.02-0.03-0.03-0.05-0.05
	C233.01,155.84,232.96,155.79,232.91,155.75z"/>
<g>
	<path class="st12" d="M238.31,157.43c0,0-3.9-0.87-6.94,1.39c0,0,2.08,2.21,3.87,1.8C237.42,160.14,238.31,157.43,238.31,157.43z"
		/>
	<path class="st13" d="M238.12,157.54c0,0-2.59-0.11-6.53,1.28c0,0,1.38,1.82,3.72,1.25C237.67,159.51,238.12,157.54,238.12,157.54z
		"/>
</g>
<path class="st5" d="M223.75,316.82l8.11,0.32l0.76-41.05l0.01-0.76l-0.75-11.34l5.14-26.27h1.95l1.17,26.13l0.66,9.97l0.15,5.69
	l0.89,33.78l7.79-0.31c0,0,3.48-28.48,3.48-36.38c0-0.78-0.03-1.36-0.11-1.7l-0.1-0.75l-1.84-13.36c0,0,5.36-25.22,5.1-31.52
	c-0.11-2.59-1.03-7.02-2.08-11.34c-1.49-6.19-3.25-12.15-3.25-12.15l-20.73-0.87c-0.88,2.32-1.78,4.97-2.62,7.63
	c-2.48,7.84-4.51,15.8-4.51,15.8c-0.37,1.25-1.95,27.37-2.68,39.75c-0.23,3.88-0.37,6.41-0.37,6.41
	C219.09,278.17,223.75,316.82,223.75,316.82z"/>
<path class="st5" d="M227.7,212.53c1.95-0.12,3.89-0.34,5.84-0.44c6.35-0.33,13.14,0.73,18.54,4.12c0.7,0.44,1.44,1.07,2.22,1.71
	c-1.49-6.19-3.25-12.15-3.25-12.15l-20.73-0.87C229.44,207.22,228.54,209.87,227.7,212.53z"/>
<polygon class="st14" points="269.67,214.22 246.69,212.81 253.62,183.23 276.6,184.65 "/>
<polygon class="st1" points="277.41,185.8 271.11,212.66 270.48,215.37 247.5,213.95 250.73,200.18 254.43,184.38 "/>
<path class="st5" d="M271.11,212.66l-0.64,2.71l-22.98-1.41l3.23-13.77C252.62,205.1,257.78,210.75,271.11,212.66z"/>
<g>
	<g>
		<path class="st0" d="M276.57,199.84c-0.21,0.4-0.56,0.7-0.93,0.88c-0.44,0.2-0.88,0.43-1.33,0.59c-0.04,0.02-0.09,0.03-0.13,0.05
			c-0.21,0.07-0.42,0.12-0.63,0.16c-0.08,0.01-0.15,0.02-0.23,0.02c-0.26,0.02-0.51-0.01-0.74-0.08c-0.38-0.12-0.46-0.65-0.14-1.03
			c0.4-0.48,0.93-0.84,1.46-1.09c0.33-0.15,1.44-0.51,2.17-0.48C276.61,198.87,276.94,199.12,276.57,199.84z"/>
		<path class="st0" d="M275.38,202.27c-0.21,0.4-0.55,0.7-0.93,0.88c-0.28,0.13-0.57,0.27-0.86,0.39c-0.11,0.05-0.23,0.1-0.34,0.14
			c-0.3,0.11-0.59,0.21-0.89,0.25c-0.06,0.01-0.12,0.01-0.18,0.02c-0.27,0.02-0.55,0-0.79-0.08c-0.38-0.12-0.45-0.65-0.13-1.03
			c0.4-0.48,0.93-0.85,1.46-1.09c0.12-0.05,0.33-0.14,0.6-0.22c0.25-0.07,0.54-0.15,0.83-0.2c0.05-0.01,0.11-0.02,0.16-0.03
			C275.14,201.19,275.88,201.31,275.38,202.27z"/>
		<path class="st0" d="M274.82,204.47c-0.21,0.4-0.55,0.7-0.93,0.88c-0.35,0.16-0.72,0.34-1.08,0.49c-0.11,0.04-0.23,0.09-0.34,0.12
			c-0.22,0.08-0.45,0.14-0.68,0.17c-0.14,0.02-0.27,0.03-0.4,0.03c-0.2,0-0.39-0.03-0.56-0.09c-0.38-0.12-0.45-0.65-0.13-1.03
			c0.4-0.48,0.93-0.85,1.46-1.09c0.01,0,0.01,0,0.02-0.01c0.22-0.1,0.71-0.27,1.23-0.38c0.06-0.01,0.12-0.03,0.19-0.03
			C274.48,203.38,275.35,203.46,274.82,204.47z"/>
		<path class="st0" d="M273.69,206.83c-0.21,0.4-0.55,0.71-0.93,0.88c-0.06,0.03-0.11,0.05-0.17,0.08c-0.63,0.3-1.27,0.61-1.92,0.7
			c-0.33,0.05-0.67,0.04-0.97-0.06c-0.38-0.12-0.45-0.65-0.13-1.03c0.4-0.48,0.93-0.84,1.46-1.09c0.08-0.04,0.21-0.09,0.37-0.14
			c0.34-0.11,0.81-0.25,1.25-0.31c0.06-0.01,0.12-0.02,0.17-0.02C273.56,205.77,274.15,205.95,273.69,206.83z"/>
	</g>
	<path class="st15" d="M276.57,199.84c-0.21,0.4-0.56,0.7-0.93,0.88c-0.44,0.2-0.88,0.43-1.33,0.59c0.84-0.12,1.57,0,1.08,0.96
		c-0.21,0.4-0.55,0.7-0.93,0.88c-0.28,0.13-0.57,0.27-0.86,0.39c0.9-0.16,1.77-0.09,1.24,0.93c-0.21,0.4-0.55,0.7-0.93,0.88
		c-0.35,0.16-0.72,0.34-1.08,0.49c0.75-0.07,1.34,0.1,0.88,0.98c-0.21,0.4-0.55,0.71-0.93,0.88c-0.06,0.03-0.11,0.05-0.17,0.08
		c0.02-0.04,0.04-0.08,0.06-0.12c0.15-0.3,0.27-0.64,0.26-0.97c-0.01-0.33-0.17-0.65-0.43-0.73l-0.02,0
		c0.06-0.03,0.12-0.06,0.18-0.1c0.39-0.22,0.78-0.49,0.98-0.92c0.23-0.51,0-1.26-0.48-1.2c0.03-0.02,0.07-0.04,0.1-0.06
		c0.05-0.03,0.1-0.07,0.16-0.11c0.35-0.23,0.68-0.51,0.89-0.9c0.23-0.44,0.2-1.07-0.12-1.32c-0.01-0.01-0.02-0.01-0.03-0.02
		c-0.03-0.02-0.06-0.04-0.1-0.05c0.69-0.43,1.34-0.88,1.74-1.69c0.11-0.22,0.19-0.48,0.28-0.74
		C276.61,198.87,276.94,199.12,276.57,199.84z"/>
</g>
<g>
	<g>
		<path class="st5" d="M196.53,172.84l0.96-1.09c0,0,19.06,10.87,21.24,13.45c0,0,7.09-10.62,13.34-14.51c0,0-4.55,5.55-6.72,8.14
			l-6.33,7.53c0.18,0.24,0.32,0.49,0.43,0.64c0.54,0.8,0.98,1.67,1.32,2.57c0.06,0.16,0.1,0.37-0.04,0.47
			c-0.16,0.11-0.38-0.05-0.51-0.19c-0.75-0.83-1.5-1.67-2.25-2.5c-0.4,0.77-0.87,1.6-1.7,1.91c0.04-1.13,0.41-2.24,1.04-3.18
			C213.21,182.82,200.76,175.93,196.53,172.84z"/>
	</g>
</g>
<path class="st1" d="M250,316.89c0.35,0.77,0.77,1.97,0.87,3.48c0.03,0.43,0.05,0.78,0,1.17c-0.24,1.89-2.08,4.02-4.58,4.51
	c-0.43,0.08-3.01,0.59-4.74-1.17c-1.34-1.36-1.12-6.11-0.19-8.02"/>
<ellipse class="st13" cx="236.12" cy="149.63" rx="0.59" ry="0.34"/>
<ellipse class="st13" cx="228.75" cy="149.35" rx="0.59" ry="0.34"/>
</svg>
